<svg xmlns="http://www.w3.org/2000/svg" width="201.73" height="70.674" viewBox="0 0 201.73 70.674">
  <g id="Capa_2" data-name="Capa 2" transform="translate(-6 -9.247)">
    <g id="Capa_1" data-name="Capa 1">
      <path id="Trazado_133" data-name="Trazado 133" d="M83.69,60.46H94.6c8.325,0,13.98,5.252,13.98,12.947S102.929,86.354,94.6,86.354H83.69ZM94.379,83.136c6.4,0,10.51-3.921,10.51-9.729s-4.106-9.729-10.51-9.729H87.392V83.136Z" transform="translate(-28.266 -20.42)" fill="#fff"/>
      <path id="Trazado_134" data-name="Trazado 134" d="M145.8,80.846H129.9c.444,3.444,3.212,5.735,7.1,5.735a7.331,7.331,0,0,0,5.689-2.364l1.987,2.291a9.838,9.838,0,0,1-7.735,3.179c-6.325,0-10.543-4.179-10.543-10.02a9.582,9.582,0,0,1,9.841-9.987c5.662,0,9.7,4.066,9.7,10.093A10.365,10.365,0,0,1,145.8,80.846ZM129.9,78.3h12.583a6.325,6.325,0,0,0-12.583,0Z" transform="translate(-42.691 -23.534)" fill="#fff"/>
      <path id="Trazado_135" data-name="Trazado 135" d="M167.709,66.831v2.729H164v-9.1h18.272v3.219H167.7v5.881" transform="translate(-55.39 -20.42)" fill="#fff"/>
      <path id="Trazado_136" data-name="Trazado 136" d="M212.406,77.634V89.476h-3.384V86.886c-1.179,1.775-3.364,2.808-6.437,2.808-4.437,0-7.245-2.364-7.245-5.768,0-3.146,2.033-5.735,7.874-5.735h5.623v-.7c0-2.993-1.735-4.735-5.252-4.735a9.887,9.887,0,0,0-6.212,2.113l-1.483-2.649A13.106,13.106,0,0,1,204,69.707C209.373,69.687,212.406,72.27,212.406,77.634Zm-3.556,5.848V80.747h-5.47c-3.517,0-4.517,1.364-4.517,3.033,0,1.987,1.629,3.179,4.331,3.179S207.963,85.74,208.85,83.482Z" transform="translate(-65.975 -23.541)" fill="#fff"/>
      <path id="Trazado_137" data-name="Trazado 137" d="M228.48,79.667c0-5.848,4.331-9.987,10.358-9.987,3.517,0,6.437,1.437,7.993,4.179l-2.7,1.735a6.113,6.113,0,0,0-5.3-2.808,6.9,6.9,0,0,0,0,13.795,6.113,6.113,0,0,0,5.3-2.808l2.7,1.7c-1.556,2.735-4.477,4.212-7.993,4.212C232.8,89.687,228.48,85.508,228.48,79.667Z" transform="translate(-77.167 -23.534)" fill="#fff"/>
      <path id="Trazado_138" data-name="Trazado 138" d="M273.1,86.229a6.722,6.722,0,0,1-4.291,1.364c-3.974,0-6.212-2.179-6.212-6.139V70.692H259.29V67.8H262.6V63.48h3.55V67.8h5.623v2.927h-5.623v10.6c0,2.106,1.113,3.311,3.073,3.311A4.457,4.457,0,0,0,272,83.705Z" transform="translate(-87.573 -21.44)" fill="#fff"/>
      <path id="Trazado_139" data-name="Trazado 139" d="M282.89,79.667c0-5.848,4.325-9.987,10.212-9.987s10.172,4.139,10.172,9.987A9.75,9.75,0,0,1,293.1,89.687C287.221,89.687,282.89,85.508,282.89,79.667Zm16.795,0c0-4.185-2.815-6.881-6.583-6.881s-6.623,2.7-6.623,6.881,2.848,6.914,6.623,6.914S299.685,83.846,299.685,79.667Z" transform="translate(-95.544 -23.534)" fill="#fff"/>
      <path id="Trazado_140" data-name="Trazado 140" d="M3.5,66.347H0V7.65L36.565,21.067V24.8L3.5,12.657Z" transform="translate(6 5.915)" fill="#fff"/>
      <path id="Trazado_141" data-name="Trazado 141" d="M12.25,81.445V24.73l3.5,1.281V76.343L48.894,63.536v3.754Z" transform="translate(0.664 -1.524)" fill="#fff"/>
      <path id="Trazado_142" data-name="Trazado 142" d="M49.778,41.927l-3.5,1.49V15.545l-32-11.814V0l35.5,13.106Z" transform="translate(-0.22 9.247)" fill="#fff"/>
      <path id="Trazado_143" data-name="Trazado 143" d="M24.8,95.925V82.2h3.5v8.76L54.36,80.51v3.77Z" transform="translate(-4.802 -25.819)" fill="#fff"/>
      <path id="Trazado_144" data-name="Trazado 144" d="M179.8,82.1H164.023l-.013-3.146h15.782Z" transform="translate(-55.393 -26.665)" fill="#fff"/>
      <rect id="Rectángulo_274" data-name="Rectángulo 274" width="3.702" height="13.649" transform="translate(108.617 52.285)" fill="#fff"/>
    </g>
  </g>
</svg>
