<svg xmlns="http://www.w3.org/2000/svg" width="149.082" height="30.957" viewBox="0 0 149.082 30.957">
  <g id="Capa_2" data-name="Capa 2" transform="translate(0.006 -0.002)">
    <g id="Capa_1" data-name="Capa 1" transform="translate(-0.006 0.002)">
      <path id="Trazado_145" data-name="Trazado 145" d="M11.083,39.828A11.084,11.084,0,0,1,3.06,36.875,10.185,10.185,0,0,1,0,29.179v-.557A13.243,13.243,0,0,1,1.22,22.785a8.9,8.9,0,0,1,3.574-3.91,10.755,10.755,0,0,1,5.571-1.38,9.325,9.325,0,0,1,7.167,2.815q2.627,2.815,2.627,7.857v2.608H6.818a4.835,4.835,0,0,0,1.573,2.843,4.669,4.669,0,0,0,3.142,1.035,6.072,6.072,0,0,0,4.982-2.208l3.064,3.62a8.551,8.551,0,0,1-3.551,2.76,11.96,11.96,0,0,1-4.945,1Zm-.759-17.153q-2.944,0-3.5,3.9H13.59v-.52a3.326,3.326,0,0,0-.814-2.5,3.266,3.266,0,0,0-2.452-.883Z" transform="translate(0.006 -9.446)" fill="#fff"/>
      <path id="Trazado_146" data-name="Trazado 146" d="M57.175,31.275H50.45V2.3h6.725Z" transform="translate(-27.241 -1.243)" fill="#fff"/>
      <path id="Trazado_147" data-name="Trazado 147" d="M91.515,7.682h-6.44V31.275H78.06V7.682H71.51V2.3H95.733Z" transform="translate(-38.613 -1.243)" fill="#fff"/>
      <path id="Trazado_148" data-name="Trazado 148" d="M247.351,2.3V21.16a10.837,10.837,0,0,1-1.38,5.552,8.818,8.818,0,0,1-3.919,3.57,13.8,13.8,0,0,1-6.035,1.228q-5.262,0-8.28-2.728A9.784,9.784,0,0,1,224.65,21.3V2.3h6.983V21.436q.12,4.724,4.393,4.729a4.255,4.255,0,0,0,3.266-1.187,5.543,5.543,0,0,0,1.109-3.859V2.3Z" transform="translate(-121.31 -1.243)" fill="#fff"/>
      <path id="Trazado_149" data-name="Trazado 149" d="M298.577,18.975H287.593V25.9h12.976v5.373H280.61V2.3h20V7.682H287.593V13.8h10.985Z" transform="translate(-151.528 -1.243)" fill="#fff"/>
      <path id="Trazado_150" data-name="Trazado 150" d="M218.21,26.76Z" transform="translate(-117.832 -14.452)" fill="#fff"/>
      <path id="Trazado_151" data-name="Trazado 151" d="M216.87,22.05Z" transform="translate(-117.108 -11.908)" fill="#fff"/>
      <path id="Trazado_152" data-name="Trazado 152" d="M154,19.47Z" transform="translate(-83.158 -10.515)" fill="#fff"/>
      <path id="Trazado_153" data-name="Trazado 153" d="M165.37,61.108h0a14.983,14.983,0,0,1-1.96-1.348,13.258,13.258,0,0,0,1.96,1.348Z" transform="translate(-88.24 -32.272)" fill="#fff" fill-rule="evenodd"/>
      <path id="Trazado_154" data-name="Trazado 154" d="M145.8,7.063h0l-.11-.166h0l-.193-.276-.032-.046c-.064-.092-.129-.179-.2-.267V6.272l-.2-.253V6l-.207-.258-.041-.051-.212-.248-.023-.028-.207-.235-.032-.037c-.074-.078-.147-.161-.225-.239l-.041-.046-.23-.235h0l-.225-.225-.041-.037-.235-.221-.051-.046-.248-.221h0l-.248-.212-.051-.041-.248-.2-.051-.041-.248-.189h0l-.267-.193-.055-.041-.262-.184-.055-.032-.248-.166h-.037l-.271-.17-.064-.041A15.447,15.447,0,1,0,138.774,29.9a15.212,15.212,0,0,1-5.138-5.52,8.827,8.827,0,0,1-8.358-13.137L123.6,6.221,128.626,7.9a8.85,8.85,0,0,1,7.093-.7h.041c.156.051.308.106.46.166h.041c.152.06.3.124.46.193l.046.023c.147.069.29.143.46.221l.046.028.212.12h0l.207.129.055.032.193.129h0l.2.138.055.041.184.138h0l.189.147.051.041.179.156h0l.179.161.046.046.184.175.2.207.055.06.143.156.055.064.152.184.028.037c.064.074.12.147.179.225l.032.041c.046.064.092.124.133.189a.52.52,0,0,0,.046.06l.124.189.032.046c.1.161.2.322.29.488h0A8.85,8.85,0,0,1,141.759,16l.028.271a6.412,6.412,0,0,0,.258,1.214A6.606,6.606,0,0,0,146.962,22a15.106,15.106,0,0,0,1.435-6.5A15.364,15.364,0,0,0,145.8,7.063Z" transform="translate(-63.461 -0.077)" fill="#fff" fill-rule="evenodd"/>
      <path id="Trazado_155" data-name="Trazado 155" d="M178.951,15.19Z" transform="translate(-96.61 -8.204)" fill="#fff"/>
      <path id="Trazado_156" data-name="Trazado 156" d="M177.273,4.528a15.451,15.451,0,0,0-16.725-3.395,15.18,15.18,0,0,1,5.06,5.52c.239,0,.46-.032.722-.032a8.832,8.832,0,0,1,8.827,8.827,8.74,8.74,0,0,1-1.063,4.2l-.083.152c-.037.069-.078.133-.12.2l-.023.041a8.85,8.85,0,0,1-4.062,3.519l-.087.037-.138.055-.23.092H169.3l-.221.074h-.051A8.827,8.827,0,0,1,157.5,15.411q0-.131,0-.262a3.594,3.594,0,0,0,0-.5h0a6.44,6.44,0,0,0-.258-1.21,6.576,6.576,0,0,0-.285-.759,6.772,6.772,0,0,0-1.334-1.937,6.688,6.688,0,0,0-2.033-1.408,6.4,6.4,0,0,0-1.27-.414,15.46,15.46,0,0,0,8.091,20.787l.2.083.074.028a15.451,15.451,0,0,0,11.5-.06h.046l.212-.092.133-.055.12-.055.212-.1h.032a15.582,15.582,0,0,0,1.587-.86h0c.331-.207.653-.428.966-.658l4.885,1.587-1.619-4.867c.253-.34.488-.69.713-1.049h0a15.524,15.524,0,0,0,1.306-2.627c.189-.5.354-1.007.5-1.527h0A15.447,15.447,0,0,0,177.273,4.528Z" transform="translate(-81.476 -0.002)" fill="#fff"/>
    </g>
  </g>
</svg>
