<svg xmlns="http://www.w3.org/2000/svg" width="113.872" height="44.861" viewBox="0 0 113.872 44.861">
  <g id="Grupo_738" data-name="Grupo 738" transform="translate(-180.657 -12917.386)">
    <path id="Trazado_36674" data-name="Trazado 36674" d="M110.372,22.71a4.707,4.707,0,0,1-3.662,1.783c-2.45,0-3.065-1.84-3.065-5.342s.641-5.252,3.5-5.252a4.312,4.312,0,0,1,3.084,1.154l1.488-1.751a6.084,6.084,0,0,0-4.611-1.719,5.623,5.623,0,0,0-4.527,1.719c-1.366,1.488-1.751,3.847-1.751,6.13,0,2.417.41,4.29,1.577,5.63a5.168,5.168,0,0,0,4.174,1.725,6.579,6.579,0,0,0,5.367-2.456l-1.577-1.6Z" transform="translate(79.827 12913.233)" fill="#d0c6ff" fill-rule="evenodd"/>
    <path id="Trazado_36675" data-name="Trazado 36675" d="M132.883,13.311a5.878,5.878,0,0,0-4.611-1.751,5.953,5.953,0,0,0-4.752,1.866c-1.372,1.488-1.751,3.354-1.751,6.008,0,2.456.321,4.174,1.629,5.579a5.92,5.92,0,0,0,4.611,1.751,5.981,5.981,0,0,0,4.758-1.924c1.37-1.517,1.749-3.2,1.751-5.856,0-2.442-.323-4.246-1.635-5.674m-2.155,10.183a3.277,3.277,0,0,1-2.687,1.02,3.131,3.131,0,0,1-2.507-.9c-.731-.866-1.052-2.187-1.052-4.258,0-1.84.237-3.533,1.052-4.527a3.088,3.088,0,0,1,2.629-1.02,3.207,3.207,0,0,1,2.565.936c.731.846,1.02,2.417,1.02,4.316h.026a7.352,7.352,0,0,1-1.045,4.437" transform="translate(72.314 12913.238)" fill="#d0c6ff" fill-rule="evenodd"/>
    <rect id="Rect치ngulo_796" data-name="Rect치ngulo 796" width="2.623" height="22.322" transform="translate(210.949 12917.386)" fill="#d0c6ff"/>
    <path id="Trazado_36676" data-name="Trazado 36676" d="M164.815,26.755a7.477,7.477,0,0,0,5.771-2.366l-1.456-1.661a5.977,5.977,0,0,1-4.316,1.751c-3.007,0-3.476-1.924-3.533-4.873l9.337-.058c.058-.551.09-1.315.09-1.776,0-3.443-1.545-6.246-5.771-6.246a5.919,5.919,0,0,0-4.668,1.924c-1.282,1.424-1.719,3.847-1.719,6.156,0,2.77.609,4.431,1.776,5.6a6.01,6.01,0,0,0,4.489,1.552m.147-13.049c2.655,0,3.091,1.43,3.065,3.8h-6.62c.15-2.273.92-3.8,3.555-3.8" transform="translate(59.119 12913.253)" fill="#d0c6ff" fill-rule="evenodd"/>
    <path id="Trazado_36677" data-name="Trazado 36677" d="M188.778,26.758a6.579,6.579,0,0,0,5.367-2.456l-1.577-1.6h-.013a4.709,4.709,0,0,1-3.674,1.783c-2.45,0-3.065-1.84-3.065-5.342s.641-5.252,3.5-5.252a4.31,4.31,0,0,1,3.1,1.154l1.494-1.77a6.084,6.084,0,0,0-4.611-1.719,5.623,5.623,0,0,0-4.527,1.719c-1.366,1.488-1.751,3.847-1.751,6.13,0,2.417.41,4.29,1.577,5.63a5.17,5.17,0,0,0,4.181,1.725" transform="translate(50.341 12913.244)" fill="#d0c6ff" fill-rule="evenodd"/>
    <path id="Trazado_36678" data-name="Trazado 36678" d="M213.334,21.907a10.568,10.568,0,0,1-2.308.289c-1.924,0-2.1-.846-2.1-2.886v-7h4.437V10h-4.437V5.51l-2.6.321v4.2H203.67v2.308h2.655v7.118c0,3.411.731,5.047,4.322,5.047a10.674,10.674,0,0,0,2.918-.378Z" transform="translate(42.932 12915.409)" fill="#d0c6ff" fill-rule="evenodd"/>
    <rect id="Rect치ngulo_797" data-name="Rect치ngulo 797" width="2.629" height="14.563" transform="translate(260.28 12925.145)" fill="#d0c6ff"/>
    <path id="Trazado_36679" data-name="Trazado 36679" d="M226.051,5.23h.052A1.661,1.661,0,0,0,227.8,3.6c0-.031,0-.061,0-.091a1.693,1.693,0,0,0-3.386,0v0a1.68,1.68,0,0,0,1.641,1.718" transform="translate(35.492 12916.733)" fill="#d0c6ff" fill-rule="evenodd"/>
    <path id="Trazado_36680" data-name="Trazado 36680" d="M241.779,26.663,246.742,12.1H244l-3.681,11.792L236.674,12.1H233.84l4.906,14.563Z" transform="translate(32.108 12913.045)" fill="#d0c6ff" fill-rule="evenodd"/>
    <path id="Trazado_36681" data-name="Trazado 36681" d="M268,24.84c1.372-1.52,1.751-3.206,1.751-5.867l.006.026c0-2.45-.321-4.258-1.635-5.688a5.888,5.888,0,0,0-4.611-1.751,5.967,5.967,0,0,0-4.758,1.866C257.385,14.914,257,16.78,257,19.434c0,2.456.314,4.174,1.629,5.579a5.92,5.92,0,0,0,4.611,1.751A5.981,5.981,0,0,0,268,24.84m-7.233-1.231c-.725-.872-1.02-2.187-1.02-4.258,0-1.84.237-3.533,1.052-4.527a3.079,3.079,0,0,1,2.629-1.02,3.207,3.207,0,0,1,2.565.936c.731.846,1.02,2.417,1.02,4.316a7.305,7.305,0,0,1-1.052,4.437,3.253,3.253,0,0,1-2.68,1.02,3.155,3.155,0,0,1-2.514-.9" transform="translate(23.8 12913.238)" fill="#d0c6ff" fill-rule="evenodd"/>
    <path id="Trazado_36682" data-name="Trazado 36682" d="M173.438,56.105,170.931,46.07H166l4.726,14.877h5.162l4.784-14.877h-4.784Z" transform="translate(56.447 12900.857)" fill="#d0c6ff" fill-rule="evenodd"/>
    <path id="Trazado_36683" data-name="Trazado 36683" d="M202.554,46.943a8.072,8.072,0,0,0-9.92.205c-1.488,1.456-2.014,3.3-2.014,6.3,0,2.86.468,4.694,1.981,6.066a6.733,6.733,0,0,0,4.848,1.61,6.85,6.85,0,0,0,5.015-1.751c1.545-1.494,2.046-3.36,2.046-6.3h-.032c0-2.86-.468-4.758-1.924-6.13m-5.079,10.363a2.02,2.02,0,0,1-1.52-.519c-.436-.468-.673-1.725-.673-3.418s.205-2.975.731-3.591a2.047,2.047,0,0,1,1.635-.577,1.8,1.8,0,0,1,1.462.519,5.679,5.679,0,0,1,.7,3.369c0,1.717-.239,2.962-.763,3.576a1.925,1.925,0,0,1-1.571.641" transform="translate(47.614 12901.12)" fill="#d0c6ff" fill-rule="evenodd"/>
    <path id="Trazado_36684" data-name="Trazado 36684" d="M225.419,55.8a3.75,3.75,0,0,1-2.712,1.34c-1.52,0-1.872-1.225-1.872-3.847s.353-3.764,2.219-3.764a3.4,3.4,0,0,1,2.308.821l2.565-3.1a7.923,7.923,0,0,0-9.894.032c-1.513,1.52-1.981,3.8-1.981,6.214s.468,4.38,1.751,5.771a6,6,0,0,0,4.668,1.783,7.24,7.24,0,0,0,5.662-2.392l-2.712-2.886Z" transform="translate(38.491 12901.052)" fill="#d0c6ff" fill-rule="evenodd"/>
    <path id="Trazado_36685" data-name="Trazado 36685" d="M243.936,45.47a6.86,6.86,0,0,0-5.13,1.872c-1.462,1.513-1.956,3.79-1.956,6.239,0,2.95.7,4.816,2.014,5.983a7.106,7.106,0,0,0,4.816,1.52,8.337,8.337,0,0,0,6.355-2.45l-2.244-2.623V55.98a5.7,5.7,0,0,1-3.937,1.571c-2.129,0-2.482-1.135-2.514-3.059l8.785-.09a12.489,12.489,0,0,0,.115-1.751c0-4.117-1.488-7.182-6.3-7.182m-2.559,6.021c.064-1.635.526-2.687,2.366-2.687s2.1.962,2.129,2.687Z" transform="translate(31.029 12901.073)" fill="#d0c6ff" fill-rule="evenodd"/>
    <path id="Trazado_36686" data-name="Trazado 36686" d="M264.8,50.059c0-.757.551-1.052,1.577-1.052a4.975,4.975,0,0,1,3.148,1.077l2.1-2.8a6.684,6.684,0,0,0-4.963-1.719c-3.328,0-6.124,1.513-6.124,4.636,0,5.31,7.118,4.258,7.118,6.3,0,.962-.731,1.193-1.751,1.193a4.971,4.971,0,0,1-3.559-1.282l-2.1,2.8c1.225,1.372,3.386,1.924,5.4,1.924,3.091,0,6.246-1.282,6.246-4.816,0-5.342-7.092-4.437-7.092-6.271" transform="translate(22.634 12901.037)" fill="#d0c6ff" fill-rule="evenodd"/>
    <path id="Trazado_36687" data-name="Trazado 36687" d="M153.594,49.442l-4.534,1.212.6,2.27-1.821-6.8-4.54,1.212,1.218,4.538-4.539,1.214,1.218,4.54,4.539-1.211,1.213,4.533,4.54-1.212-1.218-4.54L148,55.8l6.81-1.828Z" transform="translate(65.781 12900.84)" fill="#d0c6ff" fill-rule="evenodd"/>
  </g>
</svg>
