<svg xmlns="http://www.w3.org/2000/svg" width="166.556" height="42.95" viewBox="0 0 166.556 42.95">
  <g id="Grupo_900" data-name="Grupo 900" transform="translate(-754.638 -4986.013)" opacity="0.298">
    <path id="Trazado_37035" data-name="Trazado 37035" d="M11.532,0a14.848,14.848,0,0,1,3.919,7.028c1.171,4.6-2.523,7.929-2.523,7.929,4.369-4.843,10.136-.721,10.136-.721S12.794,12.208,11.532,26.669C10.271,12.208,0,14.235,0,14.235s5.766-4.122,10.136.721c0,0-3.694-3.334-2.523-7.929A14.849,14.849,0,0,1,11.532,0Z" transform="translate(849.448 5028.212) rotate(180)" fill="none" stroke="#fff" stroke-linecap="round" stroke-linejoin="round" stroke-width="1.5"/>
    <path id="Trazado_37037" data-name="Trazado 37037" d="M1.807.346a1.042,1.042,0,0,0-1.55,0A1.379,1.379,0,0,0,.231,1.889c.5.86.8,1.457.8,1.457s.3-.6.8-1.457A1.378,1.378,0,0,0,1.807.346Z" transform="translate(838.947 4997.378) rotate(180)" fill="none" stroke="#fff" stroke-linecap="round" stroke-linejoin="round" stroke-width="1.5"/>
    <path id="Trazado_37038" data-name="Trazado 37038" d="M0,19.779C14.122,19.589,18.758,5.839,10.42.855A5.559,5.559,0,0,0,6.68.066C5.664.239,4.7.756,4.91,2.139,5.328,4.9,11.23,4,11.962,7.908,13.8,17.72,0,19.779,0,19.779Z" transform="translate(858.953 5010.487) rotate(180)" fill="none" stroke="#fff" stroke-linecap="round" stroke-linejoin="round" stroke-width="1.5"/>
    <path id="Trazado_37039" data-name="Trazado 37039" d="M14.563,19.779C.442,19.589-4.2,5.839,4.143.855A5.559,5.559,0,0,1,7.883.066C8.9.239,9.862.756,9.653,2.139,9.235,4.9,3.333,4,2.6,7.908.766,17.72,14.563,19.779,14.563,19.779Z" transform="translate(831.44 5010.487) rotate(180)" fill="none" stroke="#fff" stroke-linecap="round" stroke-linejoin="round" stroke-width="1.5"/>
    <path id="Trazado_37040" data-name="Trazado 37040" d="M62.058,9.239a3.565,3.565,0,0,1-4.168-.674,3.606,3.606,0,0,1-.251-4.177,4.012,4.012,0,0,1,2.3-1.7,4.132,4.132,0,0,1,4.537,1.894l.059.084c1.853,2.7.083,6.107-2.221,7.856a13.582,13.582,0,0,1-8.537,2.535c-6.855-.235-12.822-3.7-19.137-7.362C30.176,5.1,25.561,2.427,20.628,1.027,14.722-.649,9.258-.264,5.24,2.111A10.5,10.5,0,0,0,.756,15.061c.03.073.061.145.092.217,1.6,3.665,5.616,6.8,10.2,5.712,3.277-.781,6.651-3.787,6.449-7.821A6.452,6.452,0,0,0,14.408,8.1a4.826,4.826,0,0,0-4.663-.294,5.293,5.293,0,0,0-3.005,3.921A3.763,3.763,0,0,0,8.1,15.173" transform="translate(920.421 5007.984) rotate(180)" fill="none" stroke="#fff" stroke-linecap="round" stroke-linejoin="round" stroke-width="1.5"/>
    <path id="Trazado_37041" data-name="Trazado 37041" d="M3.251,9.239A3.565,3.565,0,0,0,7.42,8.565,3.606,3.606,0,0,0,7.67,4.388a4.012,4.012,0,0,0-2.3-1.7A4.132,4.132,0,0,0,.832,4.582l-.059.084C-1.08,7.37.69,10.773,2.995,12.522a13.582,13.582,0,0,0,8.537,2.535c6.855-.235,12.822-3.7,19.138-7.362,4.464-2.59,9.079-5.267,14.012-6.667C50.587-.649,56.051-.264,60.069,2.111a10.5,10.5,0,0,1,4.483,12.95c-.029.073-.06.145-.092.217-1.6,3.665-5.616,6.8-10.2,5.712-3.277-.781-6.651-3.787-6.448-7.821A6.452,6.452,0,0,1,50.9,8.1a4.827,4.827,0,0,1,4.663-.294,5.293,5.293,0,0,1,3.005,3.921A3.763,3.763,0,0,1,57.2,15.173" transform="translate(820.719 5007.984) rotate(180)" fill="none" stroke="#fff" stroke-linecap="round" stroke-linejoin="round" stroke-width="1.5"/>
  </g>
</svg>
