<svg id="Grupo_713" data-name="Grupo 713" xmlns="http://www.w3.org/2000/svg" xmlns:xlink="http://www.w3.org/1999/xlink" width="926.515" height="936.731" viewBox="0 0 926.515 936.731">
  <defs>
    <clipPath id="clip-path">
      <rect id="Rectángulo_701" data-name="Rectángulo 701" width="926.515" height="936.731" fill="#5849bc"/>
    </clipPath>
  </defs>
  <g id="Grupo_599" data-name="Grupo 599" clip-path="url(#clip-path)">
    <path id="Trazado_34508" data-name="Trazado 34508" d="M385.3,45.554c1.3-14.414.049-29.306-.6-43.738a1.883,1.883,0,0,0-3.764,0c-.647,14.429-1.9,29.327-.6,43.738a2.481,2.481,0,0,0,4.959,0" transform="translate(77.565 0)" fill="#5849bc"/>
    <path id="Trazado_34509" data-name="Trazado 34509" d="M386.37,70.4c-1.485-6.315-2.467-12.34-2.057-18.851.108-1.688-2.7-2.11-2.989-.406-1.128,6.781-1.332,13.833.44,20.526.788,2.977,5.311,1.72,4.606-1.269" transform="translate(77.705 10.223)" fill="#5849bc"/>
    <path id="Trazado_34510" data-name="Trazado 34510" d="M386.973,106.805c.228-8.077-.512-16.243-1.078-24.3a1.761,1.761,0,0,0-3.52,0c-.565,8.054-1.307,16.225-1.074,24.3.1,3.649,5.568,3.655,5.672,0" transform="translate(77.869 16.504)" fill="#5849bc"/>
    <path id="Trazado_34511" data-name="Trazado 34511" d="M387.125,180.349c.415-20.5-.124-41.095-1.4-61.556a1.554,1.554,0,0,0-3.106,0c-1.278,20.46-1.816,41.056-1.4,61.556.075,3.8,5.833,3.809,5.908,0" transform="translate(77.833 23.956)" fill="#5849bc"/>
    <path id="Trazado_34512" data-name="Trazado 34512" d="M389.258,199.62c.27-.27.543-.538.813-.807,4.453-4.424-2.459-11.34-6.887-6.887q-.4.4-.808.813c-4.421,4.447,2.434,11.3,6.882,6.881" transform="translate(77.806 38.906)" fill="#5849bc"/>
    <path id="Trazado_34513" data-name="Trazado 34513" d="M386.467,216.759a8.67,8.67,0,0,0-1.891-1.053c-2.637-1.263-6.273.845-5.261,4.044a24.032,24.032,0,0,0,1.19,2.973c2.778,6.018,12.58-1.716,5.962-5.965" transform="translate(77.437 43.98)" fill="#5849bc"/>
    <path id="Trazado_34514" data-name="Trazado 34514" d="M449.56,21.337c-.058-.541-.116-1.08-.178-1.62a4.421,4.421,0,0,0-8.836,0c-.058.54-.12,1.079-.178,1.62-.655,5.909,9.847,5.921,9.192,0" transform="translate(89.936 3.157)" fill="#5849bc"/>
    <path id="Trazado_34515" data-name="Trazado 34515" d="M443.156,50.979q-.217-.751-.436-1.5a4.6,4.6,0,0,0-8.807,0q-.217.75-.431,1.5c-2.322,8.066,12.007,8.115,9.674,0" transform="translate(88.483 9.44)" fill="#5849bc"/>
    <path id="Trazado_34516" data-name="Trazado 34516" d="M426.77,154.979c4.635-24.841,8.561-50,11.193-75.135.2-1.847-2.806-2.218-3.224-.436-5.7,24.373-10.179,49.186-13.9,73.937-.578,3.832,5.194,5.573,5.928,1.634" transform="translate(85.945 15.982)" fill="#5849bc"/>
    <path id="Trazado_34517" data-name="Trazado 34517" d="M414.356,240.828c5.025-26.02,7.355-52.628,9.922-78.974.2-2.071-3.213-2.525-3.638-.493-5.425,25.955-11.105,52.034-14.084,78.411-.5,4.423,6.953,5.436,7.8,1.056" transform="translate(83.031 32.689)" fill="#5849bc"/>
    <path id="Trazado_34518" data-name="Trazado 34518" d="M500.943,64.709c5.98-13.178,9.706-27.651,13.854-41.491a1.884,1.884,0,0,0-3.555-1.242c-5.367,13.41-11.46,27.063-14.981,41.1a2.481,2.481,0,0,0,4.682,1.634" transform="translate(101.338 4.242)" fill="#5849bc"/>
    <path id="Trazado_34519" data-name="Trazado 34519" d="M492.294,88.559c.679-6.451,1.738-12.463,4.271-18.475.659-1.558-1.856-2.883-2.689-1.368-3.3,6.03-5.815,12.62-6.35,19.522-.237,3.071,4.449,3.377,4.768.322" transform="translate(99.572 13.898)" fill="#5849bc"/>
    <path id="Trazado_34520" data-name="Trazado 34520" d="M481.335,123.1c2.877-7.551,4.872-15.5,6.992-23.3A1.761,1.761,0,0,0,485,98.64c-3.188,7.418-6.581,14.887-9.023,22.588-1.1,3.479,4.052,5.285,5.355,1.869" transform="translate(97.184 19.916)" fill="#5849bc"/>
    <path id="Trazado_34521" data-name="Trazado 34521" d="M459.3,192.567c7.148-19.217,13.429-38.839,18.967-58.578a1.554,1.554,0,0,0-2.932-1.024c-7.949,18.9-15.247,38.164-21.613,57.654-1.184,3.615,4.252,5.519,5.578,1.947" transform="translate(92.634 26.954)" fill="#5849bc"/>
    <path id="Trazado_34522" data-name="Trazado 34522" d="M451.778,211.355c.343-.166.69-.329,1.033-.494,5.662-2.708,1.416-11.517-4.233-8.772-.343.165-.686.334-1.031.5-5.638,2.742-1.427,11.474,4.23,8.766" transform="translate(90.863 41.168)" fill="#5849bc"/>
    <path id="Trazado_34523" data-name="Trazado 34523" d="M443.365,226.711a8.774,8.774,0,0,0-1.438-1.617c-2.074-2.062-6.2-1.268-6.3,2.085a24.071,24.071,0,0,0,.143,3.2c.639,6.6,12.442,2.528,7.6-3.666" transform="translate(88.971 45.743)" fill="#5849bc"/>
    <path id="Trazado_34524" data-name="Trazado 34524" d="M567.52,62.962q.186-.795.366-1.588a4.422,4.422,0,0,0-8.343-2.913c-.232.491-.468.98-.7,1.472-2.566,5.362,7.346,8.836,8.679,3.03" transform="translate(114.053 11.366)" fill="#5849bc"/>
    <path id="Trazado_34525" data-name="Trazado 34525" d="M551.71,88.815q.041-.78.084-1.561a4.605,4.605,0,0,0-8.315-2.9q-.453.638-.9,1.275c-4.849,6.85,8.662,11.62,9.133,3.189" transform="translate(110.603 16.841)" fill="#5849bc"/>
    <path id="Trazado_34526" data-name="Trazado 34526" d="M505.816,180.991c12.565-21.924,24.564-44.382,35.335-67.246.792-1.68-1.92-3.02-2.9-1.475-13.415,21.132-25.821,43.082-37.492,65.224-1.808,3.427,3.068,6.974,5.059,3.5" transform="translate(102.195 22.791)" fill="#5849bc"/>
    <path id="Trazado_34527" data-name="Trazado 34527" d="M466.051,257.933c13.321-22.908,24.291-47.263,35.4-71.289.87-1.891-2.2-3.443-3.272-1.664-13.679,22.714-27.637,45.466-39.143,69.385-1.928,4.014,4.774,7.425,7.016,3.568" transform="translate(93.684 37.621)" fill="#5849bc"/>
    <path id="Trazado_34528" data-name="Trazado 34528" d="M607.043,122.718c10.113-10.35,18.55-22.687,27.166-34.284a1.884,1.884,0,0,0-2.919-2.378c-9.616,10.777-20,21.535-28.091,33.53a2.481,2.481,0,0,0,3.844,3.132" transform="translate(123.096 17.44)" fill="#5849bc"/>
    <path id="Trazado_34529" data-name="Trazado 34529" d="M589.472,142.723c2.838-5.832,5.883-11.124,10.314-15.913,1.15-1.24-.763-3.343-2.062-2.2-5.158,4.544-9.77,9.883-12.625,16.19-1.269,2.8,3.031,4.688,4.372,1.926" transform="translate(119.455 25.383)" fill="#5849bc"/>
    <path id="Trazado_34530" data-name="Trazado 34530" d="M567.644,171.271c5.279-6.118,9.865-12.914,14.515-19.518a1.761,1.761,0,0,0-2.729-2.224c-5.526,5.889-11.262,11.753-16.183,18.16-2.225,2.894,2.007,6.35,4.4,3.583" transform="translate(114.911 30.415)" fill="#5849bc"/>
    <path id="Trazado_34531" data-name="Trazado 34531" d="M525.268,228.348c13.272-15.63,25.862-31.935,37.8-48.6a1.554,1.554,0,0,0-2.408-1.962c-13.914,15.054-27.342,30.68-39.97,46.834-2.345,2.995,2.116,6.638,4.58,3.732" transform="translate(106.211 36.199)" fill="#5849bc"/>
    <path id="Trazado_34532" data-name="Trazado 34532" d="M508.667,244.482c.379-.039.761-.073,1.139-.112,6.248-.617,5.259-10.344-.987-9.689-.379.039-.76.079-1.14.119-6.236.655-5.254,10.3.989,9.682" transform="translate(102.829 47.925)" fill="#5849bc"/>
    <path id="Trazado_34533" data-name="Trazado 34533" d="M495.546,256.182a8.6,8.6,0,0,0-.8-2.011c-1.246-2.645-5.4-3.307-6.633-.188a24.1,24.1,0,0,0-.956,3.056c-1.647,6.421,10.837,6.616,8.39-.857" transform="translate(99.467 51.449)" fill="#5849bc"/>
    <path id="Trazado_34534" data-name="Trazado 34534" d="M668.095,144.461c.3-.456.592-.91.885-1.368a4.421,4.421,0,0,0-6.85-5.582c-.385.382-.774.76-1.161,1.143-4.24,4.167,3.893,10.81,7.125,5.807" transform="translate(134.753 27.78)" fill="#5849bc"/>
    <path id="Trazado_34535" data-name="Trazado 34535" d="M644.429,163.359l.611-1.438a4.6,4.6,0,0,0-6.827-5.564c-.429.3-.857.592-1.282.891-6.894,4.786,4.182,13.876,7.5,6.11" transform="translate(129.635 31.768)" fill="#5849bc"/>
    <path id="Trazado_34536" data-name="Trazado 34536" d="M573.4,232.4c19.285-16.328,38.221-33.349,56.142-51.174,1.317-1.309-.775-3.492-2.225-2.376-19.816,15.293-38.962,31.7-57.48,48.538-2.869,2.606.506,7.6,3.563,5.012" transform="translate(116.163 36.466)" fill="#5849bc"/>
    <path id="Trazado_34537" data-name="Trazado 34537" d="M510.031,291.082c20.332-17,38.948-36.151,57.579-54.954,1.463-1.48-.895-3.987-2.507-2.678-20.6,16.692-41.481,33.32-60.451,51.887-3.18,3.115,1.957,8.607,5.379,5.745" transform="translate(102.867 47.605)" fill="#5849bc"/>
    <path id="Trazado_34538" data-name="Trazado 34538" d="M684.41,209.141c12.96-6.438,24.992-15.3,36.949-23.413a1.884,1.884,0,0,0-1.971-3.208c-12.631,7.005-25.979,13.74-37.575,22.4a2.481,2.481,0,0,0,2.6,4.224" transform="translate(139.028 37.224)" fill="#5849bc"/>
    <path id="Trazado_34539" data-name="Trazado 34539" d="M660.206,223.144c4.6-4.571,9.221-8.563,14.983-11.625,1.495-.792.38-3.407-1.221-2.759-6.367,2.59-12.481,6.11-17.256,11.124-2.123,2.23,1.316,5.426,3.493,3.26" transform="translate(133.993 42.617)" fill="#5849bc"/>
    <path id="Trazado_34540" data-name="Trazado 34540" d="M630.359,242.657c7-4.035,13.571-8.94,20.136-13.643a1.762,1.762,0,0,0-1.844-3c-7.156,3.738-14.505,7.384-21.263,11.811-3.054,2-.2,6.657,2.971,4.831" transform="translate(127.873 46.113)" fill="#5849bc"/>
    <path id="Trazado_34541" data-name="Trazado 34541" d="M573.142,281.254c17.682-10.383,34.943-21.627,51.707-33.43a1.554,1.554,0,0,0-1.626-2.647c-18.1,9.627-35.929,19.954-53.174,31.043-3.2,2.056-.19,6.965,3.094,5.034" transform="translate(116.149 50.032)" fill="#5849bc"/>
    <path id="Trazado_34542" data-name="Trazado 34542" d="M549.7,293.1c.371.088.743.181,1.113.27,6.1,1.476,8.374-8.033,2.26-9.474-.371-.089-.743-.176-1.116-.264-6.1-1.437-8.354,7.993-2.257,9.468" transform="translate(111.538 57.9)" fill="#5849bc"/>
    <path id="Trazado_34543" data-name="Trazado 34543" d="M533.517,299.859a8.672,8.672,0,0,0-.093-2.162c-.306-2.908-4.006-4.9-6.2-2.365a24.028,24.028,0,0,0-1.909,2.571c-3.672,5.518,8.049,9.818,8.2,1.956" transform="translate(107.146 60.082)" fill="#5849bc"/>
    <path id="Trazado_34544" data-name="Trazado 34544" d="M733.2,251.172q.645-.5,1.286-1a4.42,4.42,0,0,0-4.627-7.526c-.49.232-.981.462-1.474.7-5.376,2.536.113,11.49,4.815,7.831" transform="translate(148.313 49.449)" fill="#5849bc"/>
    <path id="Trazado_34545" data-name="Trazado 34545" d="M704.634,261.2l1.05-1.157a4.6,4.6,0,0,0-4.611-7.5c-.5.138-1,.277-1.505.419-8.086,2.246-.625,14.479,5.066,8.241" transform="translate(142.155 51.543)" fill="#5849bc"/>
    <path id="Trazado_34546" data-name="Trazado 34546" d="M617.375,299.957c23.59-9.06,47.077-18.889,69.871-29.81,1.675-.8.42-3.553-1.317-2.977-23.75,7.907-47.234,17.087-70.266,26.88-3.567,1.515-2.028,7.345,1.712,5.907" transform="translate(125.333 54.551)" fill="#5849bc"/>
    <path id="Trazado_34547" data-name="Trazado 34547" d="M538.387,334.3c24.8-9.345,48.686-21.293,72.475-32.9,1.869-.915.469-4.059-1.485-3.355-24.953,8.968-50.146,17.785-74.175,29.062-4.029,1.893-.99,8.772,3.185,7.2" transform="translate(108.924 60.852)" fill="#5849bc"/>
    <path id="Trazado_34548" data-name="Trazado 34548" d="M731.061,329.058c14.418-1.237,28.863-5.072,42.961-8.231a1.883,1.883,0,0,0-.658-3.707c-14.321,1.885-29.209,3.255-43.17,7.054a2.481,2.481,0,0,0,.866,4.883" transform="translate(148.737 64.765)" fill="#5849bc"/>
    <path id="Trazado_34549" data-name="Trazado 34549" d="M702.662,334.522c5.959-2.565,11.719-4.586,18.2-5.319,1.681-.189,1.6-3.03-.124-3.014-6.873.075-13.852,1.107-20.133,4.02-2.794,1.3-.766,5.53,2.054,4.314" transform="translate(142.821 66.622)" fill="#5849bc"/>
    <path id="Trazado_34550" data-name="Trazado 34550" d="M667.844,341.42c7.993-1.187,15.9-3.341,23.737-5.307a1.761,1.761,0,0,0-.615-3.466c-8.029.851-16.2,1.549-24.113,3.188-3.574.741-2.625,6.122.991,5.585" transform="translate(135.74 67.938)" fill="#5849bc"/>
    <path id="Trazado_34551" data-name="Trazado 34551" d="M601.66,354.357c20.258-3.174,40.44-7.3,60.364-12.136a1.554,1.554,0,0,0-.543-3.058c-20.367,2.318-40.742,5.385-60.853,9.376-3.732.738-2.732,6.41,1.032,5.818" transform="translate(122.194 69.269)" fill="#5849bc"/>
    <path id="Trazado_34552" data-name="Trazado 34552" d="M573.76,359.973c.313.218.625.441.936.66,5.135,3.61,10.737-4.4,5.578-7.985l-.942-.654c-5.151-3.575-10.7,4.371-5.572,7.979" transform="translate(116.769 71.707)" fill="#5849bc"/>
    <path id="Trazado_34553" data-name="Trazado 34553" d="M556.249,360.281a8.667,8.667,0,0,0,.707-2.046c.782-2.817-1.929-6.028-4.9-4.474a24.19,24.19,0,0,0-2.719,1.691c-5.44,3.787,3.888,12.087,6.915,4.829" transform="translate(111.856 72.17)" fill="#5849bc"/>
    <path id="Trazado_34554" data-name="Trazado 34554" d="M759.813,388.187c.523-.152,1.043-.3,1.564-.459a4.421,4.421,0,0,0-1.544-8.7c-.542.037-1.084.07-1.627.107-5.932.388-4.109,10.731,1.606,9.051" transform="translate(154.111 77.411)" fill="#5849bc"/>
    <path id="Trazado_34555" data-name="Trazado 34555" d="M729.58,387.041l1.4-.691a4.6,4.6,0,0,0-1.539-8.671c-.518-.055-1.036-.111-1.552-.163-8.348-.877-5.892,13.242,1.69,9.524" transform="translate(147.598 77.097)" fill="#5849bc"/>
    <path id="Trazado_34556" data-name="Trazado 34556" d="M635.736,387.095c25.269.224,50.725-.306,75.936-2.107,1.852-.13,1.693-3.15-.134-3.251-25-1.355-50.21-1.428-75.229-.765-3.874.1-4.58,6.089-.573,6.124" transform="translate(129.295 77.727)" fill="#5849bc"/>
    <path id="Trazado_34557" data-name="Trazado 34557" d="M549.8,389.822c26.5.4,53.1-1.954,79.492-4.031,2.075-.166,1.926-3.605-.149-3.667-26.5-.808-53.176-1.844-79.665-.166-4.443.282-4.138,7.8.323,7.864" transform="translate(111.576 77.828)" fill="#5849bc"/>
    <path id="Trazado_34558" data-name="Trazado 34558" d="M732.02,445.248c14.021,3.585,28.922,4.724,43.273,6.39a1.884,1.884,0,0,0,.6-3.717c-14.141-2.941-28.649-6.553-43.083-7.567a2.481,2.481,0,0,0-.791,4.9" transform="translate(149.102 89.937)" fill="#5849bc"/>
    <path id="Trazado_34559" data-name="Trazado 34559" d="M703.212,441.6c6.47-.458,12.575-.466,18.938.978,1.65.376,2.513-2.333.877-2.887-6.514-2.2-13.443-3.521-20.332-2.841-3.065.3-2.546,4.969.518,4.75" transform="translate(143.1 89.186)" fill="#5849bc"/>
    <path id="Trazado_34560" data-name="Trazado 34560" d="M668.068,436.69c7.937,1.514,16.116,2.088,24.16,2.813a1.761,1.761,0,0,0,.562-3.475c-7.861-1.841-15.808-3.879-23.818-4.937-3.619-.479-4.5,4.914-.9,5.6" transform="translate(135.979 88.041)" fill="#5849bc"/>
    <path id="Trazado_34561" data-name="Trazado 34561" d="M601.671,426.093c20.171,3.68,40.588,6.434,60.991,8.438a1.554,1.554,0,0,0,.495-3.066c-19.994-4.524-40.24-8.343-60.543-11.2-3.767-.533-4.692,5.151-.943,5.832" transform="translate(122.399 85.828)" fill="#5849bc"/>
    <path id="Trazado_34562" data-name="Trazado 34562" d="M573.1,423.594c.223.308.444.623.667.931,3.656,5.1,11.587-.618,7.9-5.7q-.334-.464-.673-.928c-3.685-5.072-11.546.6-7.891,5.7" transform="translate(116.857 84.947)" fill="#5849bc"/>
    <path id="Trazado_34563" data-name="Trazado 34563" d="M556.445,418.043a8.643,8.643,0,0,0,1.342-1.7c1.667-2.4.166-6.327-3.153-5.839a24.191,24.191,0,0,0-3.125.7c-6.384,1.782-.313,12.693,4.936,6.838" transform="translate(112.081 83.834)" fill="#5849bc"/>
    <path id="Trazado_34564" data-name="Trazado 34564" d="M739.423,511.593c.543.029,1.085.058,1.628.082a4.421,4.421,0,0,0,1.41-8.722c-.525-.143-1.047-.29-1.572-.434-5.729-1.59-7.416,8.775-1.467,9.074" transform="translate(150.261 102.602)" fill="#5849bc"/>
    <path id="Trazado_34565" data-name="Trazado 34565" d="M711.283,500.543l1.551-.19a4.605,4.605,0,0,0,1.405-8.695c-.471-.223-.941-.446-1.412-.665-7.593-3.579-9.928,10.559-1.544,9.55" transform="translate(144.19 100.163)" fill="#5849bc"/>
    <path id="Trazado_34566" data-name="Trazado 34566" d="M622.584,469.642c23.783,8.541,47.991,16.432,72.386,23.04,1.793.488,2.638-2.414.947-3.114-23.152-9.516-46.933-17.9-70.772-25.518-3.692-1.179-6.332,4.24-2.56,5.593" transform="translate(126.783 94.744)" fill="#5849bc"/>
    <path id="Trazado_34567" data-name="Trazado 34567" d="M540.613,443.811c24.886,9.113,50.78,15.659,76.379,22.4,2.013.526,3.006-2.77,1.066-3.512-24.756-9.5-49.594-19.268-75.158-26.416-4.287-1.2-6.476,6-2.287,7.531" transform="translate(109.957 89.079)" fill="#5849bc"/>
    <path id="Trazado_34568" data-name="Trazado 34568" d="M687.47,568.336c11.733,8.472,25.182,14.99,37.926,21.8a1.883,1.883,0,0,0,1.92-3.238C715.235,578.978,703.059,570.3,690,564.071a2.481,2.481,0,0,0-2.529,4.265" transform="translate(140.177 115.147)" fill="#5849bc"/>
    <path id="Trazado_34569" data-name="Trazado 34569" d="M662,554.375c6.189,1.944,11.873,4.172,17.264,7.847,1.4.954,3.194-1.25,1.874-2.365-5.257-4.428-11.22-8.2-17.879-10.091-2.962-.841-4.19,3.692-1.258,4.61" transform="translate(134.866 112.264)" fill="#5849bc"/>
    <path id="Trazado_34570" data-name="Trazado 34570" d="M631.129,536.936c6.832,4.316,14.232,7.846,21.451,11.467a1.761,1.761,0,0,0,1.8-3.028c-6.64-4.594-13.29-9.4-20.353-13.319-3.192-1.771-5.985,2.926-2.894,4.88" transform="translate(128.629 108.588)" fill="#5849bc"/>
    <path id="Trazado_34571" data-name="Trazado 34571" d="M573.237,502.752c17.422,10.813,35.411,20.853,53.661,30.192a1.554,1.554,0,0,0,1.585-2.671c-16.947-11.534-34.388-22.5-52.233-32.6-3.309-1.876-6.252,3.074-3.013,5.082" transform="translate(116.792 101.56)" fill="#5849bc"/>
    <path id="Trazado_34572" data-name="Trazado 34572" d="M547.694,489.837c.094.368.187.742.279,1.11,1.534,6.087,11.009,3.669,9.436-2.411-.094-.37-.19-.739-.287-1.11-1.57-6.069-10.963-3.672-9.429,2.411" transform="translate(111.828 98.833)" fill="#5849bc"/>
    <path id="Trazado_34573" data-name="Trazado 34573" d="M534.2,478.555a8.641,8.641,0,0,0,1.87-1.09c2.431-1.623,2.472-5.827-.795-6.588a24.316,24.316,0,0,0-3.165-.492c-6.592-.679-4.94,11.7,2.089,8.171" transform="translate(107.829 96.067)" fill="#5849bc"/>
    <path id="Trazado_34574" data-name="Trazado 34574" d="M670.246,632.7c.5.226.989.452,1.485.673a4.421,4.421,0,0,0,4.506-7.6c-.435-.325-.867-.654-1.3-.98-4.747-3.577-10.114,5.45-4.688,7.907" transform="translate(136.427 127.44)" fill="#5849bc"/>
    <path id="Trazado_34575" data-name="Trazado 34575" d="M648.146,612.087l1.513.391a4.6,4.6,0,0,0,4.493-7.575c-.358-.38-.713-.761-1.072-1.137-5.753-6.112-13.1,6.189-4.934,8.32" transform="translate(131.636 122.97)" fill="#5849bc"/>
    <path id="Trazado_34576" data-name="Trazado 34576" d="M576.758,550.906c19,16.657,38.638,32.866,58.918,47.953,1.489,1.109,3.339-1.284,2.021-2.553-18.056-17.335-37.116-33.843-56.508-49.667-3-2.451-7.443,1.626-4.43,4.267" transform="translate(117.593 111.493)" fill="#5849bc"/>
    <path id="Trazado_34577" data-name="Trazado 34577" d="M510.023,496.829c19.818,17.594,41.517,33.17,62.867,48.815,1.681,1.227,3.813-1.476,2.28-2.877-19.557-17.906-39.091-36.095-60.259-52.108-3.553-2.685-8.224,3.207-4.888,6.169" transform="translate(103.934 100.074)" fill="#5849bc"/>
    <path id="Trazado_34578" data-name="Trazado 34578" d="M611.6,657.914c8.285,11.865,18.833,22.452,28.622,33.078a1.884,1.884,0,0,0,2.881-2.424c-8.8-11.456-17.433-23.661-27.708-33.848a2.481,2.481,0,0,0-3.794,3.194" transform="translate(124.808 133.554)" fill="#5849bc"/>
    <path id="Trazado_34579" data-name="Trazado 34579" d="M592.161,636.347c5.2,3.875,9.833,7.852,13.713,13.1,1,1.361,3.426-.128,2.548-1.616-3.5-5.913-7.89-11.44-13.554-15.419-2.521-1.772-5.172,2.1-2.707,3.937" transform="translate(120.744 129.073)" fill="#5849bc"/>
    <path id="Trazado_34580" data-name="Trazado 34580" d="M568.79,609.678c5.027,6.326,10.85,12.1,16.473,17.9a1.761,1.761,0,0,0,2.693-2.266c-4.755-6.526-9.448-13.254-14.825-19.282-2.429-2.725-6.615.789-4.34,3.652" transform="translate(116.037 123.575)" fill="#5849bc"/>
    <path id="Trazado_34581" data-name="Trazado 34581" d="M525.41,558.316c12.884,15.951,26.558,31.36,40.712,46.191a1.554,1.554,0,0,0,2.376-2c-12.2-16.475-25.049-32.581-38.567-48-2.507-2.862-6.917.842-4.521,3.8" transform="translate(107.17 113.044)" fill="#5849bc"/>
    <path id="Trazado_34582" data-name="Trazado 34582" d="M505.677,537.611c-.032.379-.07.761-.1,1.14-.558,6.252,9.184,7.093,9.7.833.032-.379.064-.761.1-1.142.518-6.249-9.14-7.08-9.7-.832" transform="translate(103.255 108.926)" fill="#5849bc"/>
    <path id="Trazado_34583" data-name="Trazado 34583" d="M496.613,522.578a8.664,8.664,0,0,0,2.124-.413c2.831-.732,4.256-4.687,1.421-6.482a23.831,23.831,0,0,0-2.824-1.506c-6-2.816-8.519,9.414-.721,8.4" transform="translate(100.432 104.93)" fill="#5849bc"/>
    <path id="Trazado_34584" data-name="Trazado 34584" d="M574.3,712.889c.393.377.784.751,1.179,1.125a4.421,4.421,0,0,0,6.761-5.69c-.3-.45-.6-.9-.907-1.354-3.3-4.942-11.348,1.811-7.033,5.919" transform="translate(117.043 144.038)" fill="#5849bc"/>
    <path id="Trazado_34585" data-name="Trazado 34585" d="M560.261,686.122l1.3.868a4.6,4.6,0,0,0,6.738-5.672c-.212-.476-.422-.951-.637-1.426-3.416-7.666-14.412,1.523-7.4,6.229" transform="translate(113.961 138.261)" fill="#5849bc"/>
    <path id="Trazado_34586" data-name="Trazado 34586" d="M512.854,604.921c12.449,21.99,25.647,43.766,39.819,64.693,1.04,1.538,3.575-.111,2.749-1.745-11.334-22.317-23.887-44.185-36.98-65.516-2.027-3.3-7.564-.919-5.589,2.567" transform="translate(104.661 122.704)" fill="#5849bc"/>
    <path id="Trazado_34587" data-name="Trazado 34587" d="M467.757,531.831c12.911,23.143,28.262,45,43.265,66.809,1.181,1.712,4.085-.137,3.1-1.964-12.56-23.353-25.009-46.963-39.716-69.06-2.469-3.7-8.821.318-6.647,4.215" transform="translate(95.445 107.462)" fill="#5849bc"/>
    <path id="Trazado_34588" data-name="Trazado 34588" d="M492.047,723.913c3.132,14.128,8.843,27.938,13.838,41.5a1.884,1.884,0,0,0,3.587-1.142c-3.761-13.945-7.088-28.523-12.7-41.858a2.481,2.481,0,0,0-4.725,1.5" transform="translate(100.481 147.211)" fill="#5849bc"/>
    <path id="Trazado_34589" data-name="Trazado 34589" d="M482.3,696.564c3.33,5.566,6.095,11.009,7.678,17.339.411,1.641,3.216,1.19,2.972-.521-.983-6.8-2.929-13.584-6.646-19.424-1.653-2.6-5.583-.028-4,2.607" transform="translate(98.432 141.515)" fill="#5849bc"/>
    <path id="Trazado_34590" data-name="Trazado 34590" d="M470.9,662.967c2.233,7.765,5.414,15.323,8.4,22.828a1.761,1.761,0,0,0,3.354-1.068c-1.906-7.846-3.678-15.856-6.349-23.48-1.205-3.445-6.415-1.793-5.4,1.721" transform="translate(96.152 134.667)" fill="#5849bc"/>
    <path id="Trazado_34591" data-name="Trazado 34591" d="M450.408,598.933c5.825,19.659,12.586,39.12,20.01,58.23a1.554,1.554,0,0,0,2.96-.942c-4.99-19.884-10.726-39.674-17.34-59.081-1.225-3.6-6.715-1.859-5.63,1.793" transform="translate(91.964 121.557)" fill="#5849bc"/>
    <path id="Trazado_34592" data-name="Trazado 34592" d="M440.285,572.179c-.175.338-.354.678-.53,1.015-2.9,5.566,5.784,10.06,8.652,4.474l.524-1.02c2.863-5.578-5.749-10.033-8.646-4.469" transform="translate(89.697 116.341)" fill="#5849bc"/>
    <path id="Trazado_34593" data-name="Trazado 34593" d="M437.572,554.865a8.657,8.657,0,0,0,2.121.43c2.9.4,5.721-2.71,3.787-5.45a24.044,24.044,0,0,0-2.036-2.472c-4.473-4.89-11.466,5.453-3.872,7.493" transform="translate(88.682 111.531)" fill="#5849bc"/>
    <path id="Trazado_34594" data-name="Trazado 34594" d="M436.767,760.349c.219.5.438.994.661,1.49a4.421,4.421,0,0,0,8.42-2.681c-.11-.532-.213-1.064-.323-1.6-1.168-5.828-11.179-2.654-8.758,2.789" transform="translate(89.129 154.09)" fill="#5849bc"/>
    <path id="Trazado_34595" data-name="Trazado 34595" d="M434.035,730.224l.871,1.3a4.6,4.6,0,0,0,8.391-2.671c-.013-.521-.026-1.042-.045-1.562-.234-8.39-13.9-4.09-9.217,2.935" transform="translate(88.449 147.6)" fill="#5849bc"/>
    <path id="Trazado_34596" data-name="Trazado 34596" d="M421,637.225c3.119,25.076,7.01,50.24,12.127,74.991.375,1.82,3.348,1.262,3.207-.562-1.962-24.954-5.223-49.957-9.188-74.669-.613-3.827-6.64-3.736-6.145.241" transform="translate(85.98 129.526)" fill="#5849bc"/>
    <path id="Trazado_34597" data-name="Trazado 34597" d="M407.292,552.385c3.106,26.319,8.957,52.38,14.5,78.262.44,2.033,3.828,1.431,3.615-.635-2.7-26.378-5.2-52.952-10.366-78.987-.868-4.367-8.276-3.072-7.753,1.36" transform="translate(83.181 111.993)" fill="#5849bc"/>
    <path id="Trazado_34598" data-name="Trazado 34598" d="M376,740.382c-1.7,14.371-.86,29.292-.613,43.738a1.884,1.884,0,0,0,3.763.1c1.046-14.406,2.71-29.266,1.806-43.706a2.481,2.481,0,0,0-4.957-.137" transform="translate(76.583 150.743)" fill="#5849bc"/>
    <path id="Trazado_34599" data-name="Trazado 34599" d="M375.634,711.345c1.309,6.354,2.124,12.4,1.534,18.9-.154,1.685,2.645,2.183,2.977.488,1.315-6.746,1.714-13.791.129-20.53-.706-3-5.263-1.867-4.64,1.142" transform="translate(76.708 144.694)" fill="#5849bc"/>
    <path id="Trazado_34600" data-name="Trazado 34600" d="M376,675.85c-.452,8.067.06,16.251.406,24.32a1.761,1.761,0,0,0,3.519.1c.786-8.036,1.755-16.183,1.746-24.261,0-3.65-5.466-3.808-5.671-.157" transform="translate(76.758 137.494)" fill="#5849bc"/>
    <path id="Trazado_34601" data-name="Trazado 34601" d="M377.865,608.633c-.981,20.482-1.012,41.082-.3,61.572a1.554,1.554,0,0,0,3.1.085c1.841-20.417,2.95-40.991,3.1-61.493.03-3.8-5.727-3.969-5.907-.164" transform="translate(77.014 123.742)" fill="#5849bc"/>
    <path id="Trazado_34602" data-name="Trazado 34602" d="M377.169,579.937c-.277.261-.558.523-.835.784-4.574,4.3,2.144,11.4,6.694,7.075l.83-.79c4.542-4.323-2.119-11.366-6.69-7.069" transform="translate(76.551 118.174)" fill="#5849bc"/>
    <path id="Trazado_34603" data-name="Trazado 34603" d="M380.267,562.716a8.577,8.577,0,0,0,1.861,1.1c2.6,1.336,6.295-.672,5.372-3.9a24.223,24.223,0,0,0-1.108-3c-2.611-6.092-12.623,1.368-6.125,5.8" transform="translate(77.226 113.277)" fill="#5849bc"/>
    <path id="Trazado_34604" data-name="Trazado 34604" d="M311.732,756.44c.043.542.087,1.083.134,1.625a4.421,4.421,0,0,0,8.832.244c.073-.538.151-1.075.223-1.615.819-5.888-9.68-6.191-9.188-.254" transform="translate(63.665 153.617)" fill="#5849bc"/>
    <path id="Trazado_34605" data-name="Trazado 34605" d="M319.113,727.076c.131.5.261,1.008.394,1.513a4.6,4.6,0,0,0,8.8.243c.159-.5.318-.992.471-1.488,2.546-8-11.779-8.444-9.668-.267" transform="translate(65.133 147.287)" fill="#5849bc"/>
    <path id="Trazado_34606" data-name="Trazado 34606" d="M339.576,635.112c-5.32,24.7-9.941,49.742-13.268,74.8-.246,1.841,2.745,2.3,3.213.526,6.373-24.206,11.535-48.887,15.937-73.525.683-3.815-5.039-5.715-5.882-1.8" transform="translate(66.643 129.275)" fill="#5849bc"/>
    <path id="Trazado_34607" data-name="Trazado 34607" d="M354.457,550.428c-5.743,25.871-8.808,52.405-12.1,78.67-.256,2.064,3.142,2.613,3.621.593,6.143-25.795,12.542-51.707,16.248-77.99.62-4.409-6.8-5.628-7.767-1.272" transform="translate(69.921 111.866)" fill="#5849bc"/>
    <path id="Trazado_34608" data-name="Trazado 34608" d="M255.731,714.623c-6.644,12.856-11.1,27.121-15.95,40.731a1.884,1.884,0,0,0,3.487,1.42c6.043-13.118,12.824-26.444,17.056-40.28a2.482,2.482,0,0,0-4.593-1.871" transform="translate(48.947 145.657)" fill="#5849bc"/>
    <path id="Trazado_34609" data-name="Trazado 34609" d="M263.965,687.372c-1.008,6.408-2.371,12.358-5.208,18.233-.737,1.523,1.708,2.975,2.616,1.5,3.6-5.854,6.452-12.309,7.337-19.175.394-3.054-4.269-3.6-4.745-.562" transform="translate(52.821 139.978)" fill="#5849bc"/>
    <path id="Trazado_34610" data-name="Trazado 34610" d="M277.249,654.246c-3.259,7.394-5.656,15.235-8.17,22.911a1.761,1.761,0,0,0,3.26,1.328c3.561-7.247,7.33-14.533,10.163-22.1,1.281-3.418-3.778-5.485-5.253-2.14" transform="translate(54.935 133.278)" fill="#5849bc"/>
    <path id="Trazado_34611" data-name="Trazado 34611" d="M304.869,591.935c-8.119,18.828-15.389,38.1-21.928,57.535a1.554,1.554,0,0,0,2.877,1.172c8.9-18.466,17.173-37.336,24.523-56.478,1.366-3.55-3.966-5.729-5.472-2.229" transform="translate(57.768 120.536)" fill="#5849bc"/>
    <path id="Trazado_34612" data-name="Trazado 34612" d="M310.9,564.729c-.352.148-.706.294-1.057.441-5.792,2.416-2,11.429,3.78,8.976l1.055-.448c5.772-2.451,2.011-11.386-3.778-8.969" transform="translate(62.694 115.257)" fill="#5849bc"/>
    <path id="Trazado_34613" data-name="Trazado 34613" d="M319.8,549.727a8.7,8.7,0,0,0,1.354,1.69c1.965,2.164,6.128,1.582,6.4-1.762a24.284,24.284,0,0,0,.019-3.2c-.3-6.621-12.3-3.156-7.772,3.274" transform="translate(65.108 110.88)" fill="#5849bc"/>
    <path id="Trazado_34614" data-name="Trazado 34614" d="M187.588,707.036q-.226.784-.446,1.568a4.421,4.421,0,0,0,8.183,3.333c.256-.478.518-.954.776-1.433,2.836-5.224-6.886-9.2-8.513-3.468" transform="translate(38.177 143.832)" fill="#5849bc"/>
    <path id="Trazado_34615" data-name="Trazado 34615" d="M204.8,682.119c-.054.519-.108,1.036-.164,1.555A4.6,4.6,0,0,0,212.8,687q.484-.612.966-1.227c5.194-6.593-8.058-12.046-8.958-3.65" transform="translate(41.791 138.444)" fill="#5849bc"/>
    <path id="Trazado_34616" data-name="Trazado 34616" d="M260.555,602.537c-13.666,21.256-26.794,43.072-38.716,65.358-.878,1.638,1.762,3.114,2.823,1.621,14.476-20.419,27.985-41.71,40.767-63.227,1.98-3.331-2.708-7.122-4.874-3.751" transform="translate(45.273 122.795)" fill="#5849bc"/>
    <path id="Trazado_34617" data-name="Trazado 34617" d="M304.524,528.511c-14.471,22.2-26.669,45.962-38.986,69.393-.966,1.842,2.023,3.55,3.182,1.828,14.819-21.99,29.919-44,42.629-67.3,2.13-3.91-4.388-7.659-6.824-3.921" transform="translate(54.195 107.629)" fill="#5849bc"/>
    <path id="Trazado_34618" data-name="Trazado 34618" d="M158.027,652.832c-10.509,9.948-19.422,21.945-28.484,33.2a1.884,1.884,0,0,0,2.824,2.49c10.029-10.394,20.824-20.74,29.379-32.407a2.481,2.481,0,0,0-3.719-3.28" transform="translate(26.366 133.177)" fill="#5849bc"/>
    <path id="Trazado_34619" data-name="Trazado 34619" d="M173.546,630.413c-3.064,5.718-6.313,10.886-10.927,15.5-1.2,1.195.632,3.369,1.974,2.281,5.331-4.339,10.148-9.494,13.248-15.684,1.378-2.754-2.846-4.8-4.294-2.1" transform="translate(33.134 128.497)" fill="#5849bc"/>
    <path id="Trazado_34620" data-name="Trazado 34620" d="M197.257,603.348c-5.514,5.907-10.363,12.519-15.265,18.937a1.761,1.761,0,0,0,2.64,2.329c5.75-5.668,11.712-11.3,16.879-17.513,2.336-2.806-1.758-6.425-4.253-3.752" transform="translate(37.086 123.038)" fill="#5849bc"/>
    <path id="Trazado_34621" data-name="Trazado 34621" d="M245.8,552.849c-13.872,15.1-27.089,30.9-39.667,47.093A1.554,1.554,0,0,0,208.467,602c14.492-14.5,28.52-29.591,41.769-45.239,2.459-2.9-1.856-6.716-4.432-3.909" transform="translate(42.027 112.714)" fill="#5849bc"/>
    <path id="Trazado_34622" data-name="Trazado 34622" d="M257.441,530.217c-.381.024-.764.045-1.143.067-6.267.372-5.658,10.131.609,9.721l1.144-.075c6.257-.412,5.652-10.087-.611-9.713" transform="translate(51.447 108.29)" fill="#5849bc"/>
    <path id="Trazado_34623" data-name="Trazado 34623" d="M270.712,519.046a8.626,8.626,0,0,0,.721,2.04c1.143,2.691,5.265,3.516,6.621.448a24.215,24.215,0,0,0,1.075-3.017c1.9-6.351-10.571-7.034-8.418.529" transform="translate(55.239 104.891)" fill="#5849bc"/>
    <path id="Trazado_34624" data-name="Trazado 34624" d="M94.153,624.005c-.314.444-.627.886-.938,1.333a4.421,4.421,0,0,0,6.627,5.844c.4-.366.8-.73,1.205-1.1,4.4-4-3.469-10.955-6.894-6.08" transform="translate(18.839 127.107)" fill="#5849bc"/>
    <path id="Trazado_34625" data-name="Trazado 34625" d="M118.643,606.151q-.332.708-.666,1.414a4.605,4.605,0,0,0,6.605,5.826c.44-.281.879-.559,1.316-.841,7.076-4.513-3.638-14.029-7.256-6.4" transform="translate(24.004 123.216)" fill="#5849bc"/>
    <path id="Trazado_34626" data-name="Trazado 34626" d="M200.889,547.328c-19.909,15.564-39.493,31.834-58.1,48.944-1.368,1.256.638,3.52,2.13,2.462,20.4-14.508,40.171-30.156,59.332-46.257,2.967-2.493-.21-7.617-3.366-5.148" transform="translate(29.071 111.654)" fill="#5849bc"/>
    <path id="Trazado_34627" data-name="Trazado 34627" d="M267.043,491.889c-20.98,16.19-40.328,34.6-59.68,52.665-1.52,1.421.739,4.02,2.4,2.775,21.239-15.876,42.749-31.676,62.429-49.488,3.3-2.989-1.619-8.677-5.151-5.951" transform="translate(42.25 100.318)" fill="#5849bc"/>
    <path id="Trazado_34628" data-name="Trazado 34628" d="M86.048,562.191c-13.19,5.954-25.542,14.367-37.792,22.028a1.883,1.883,0,0,0,1.851,3.278c12.883-6.532,26.472-12.769,38.379-20.987a2.481,2.481,0,0,0-2.439-4.318" transform="translate(9.669 114.768)" fill="#5849bc"/>
    <path id="Trazado_34629" data-name="Trazado 34629" d="M107.084,547.063c-4.769,4.4-9.532,8.215-15.4,11.061-1.523.736-.507,3.391,1.118,2.8,6.458-2.352,12.7-5.643,17.655-10.476,2.2-2.15-1.113-5.471-3.369-3.388" transform="translate(18.572 111.598)" fill="#5849bc"/>
    <path id="Trazado_34630" data-name="Trazado 34630" d="M138.541,529.027c-7.145,3.773-13.893,8.432-20.629,12.888a1.761,1.761,0,0,0,1.732,3.065c7.29-3.469,14.769-6.84,21.686-11.014,3.126-1.883.444-6.645-2.789-4.939" transform="translate(23.909 107.975)" fill="#5849bc"/>
    <path id="Trazado_34631" data-name="Trazado 34631" d="M202.517,495.873c-18.054,9.719-35.721,20.316-52.911,31.49a1.554,1.554,0,0,0,1.527,2.7c18.444-8.95,36.644-18.609,54.29-29.05,3.274-1.935.448-6.953-2.906-5.145" transform="translate(30.402 101.199)" fill="#5849bc"/>
    <path id="Trazado_34632" data-name="Trazado 34632" d="M218.512,480.4c-.367-.1-.736-.208-1.1-.311-6.042-1.7-8.667,7.718-2.611,9.383.367.1.737.2,1.105.3,6.045,1.662,8.645-7.678,2.607-9.377" transform="translate(43.169 98.012)" fill="#5849bc"/>
    <path id="Trazado_34633" data-name="Trazado 34633" d="M234.663,474.23a8.562,8.562,0,0,0,.013,2.164c.2,2.917,3.821,5.047,6.109,2.593a24.388,24.388,0,0,0,2-2.5c3.875-5.378-7.679-10.11-8.124-2.259" transform="translate(47.915 96.009)" fill="#5849bc"/>
    <path id="Trazado_34634" data-name="Trazado 34634" d="M33.546,515.467c-.443.317-.885.632-1.323.953a4.421,4.421,0,0,0,4.344,7.694c.5-.216,1-.426,1.5-.642,5.465-2.335.313-11.486-4.521-8" transform="translate(6.152 105.121)" fill="#5849bc"/>
    <path id="Trazado_34635" data-name="Trazado 34635" d="M62.554,506.623q-.547.558-1.092,1.118a4.6,4.6,0,0,0,4.33,7.668c.507-.119,1.014-.239,1.519-.363,8.165-1.944,1.162-14.446-4.757-8.423" transform="translate(12.288 103.141)" fill="#5849bc"/>
    <path id="Trazado_34636" data-name="Trazado 34636" d="M161.976,474.923c-23.909,8.178-47.746,17.13-70.929,27.2-1.7.738-.552,3.534,1.207,3.024,24.026-7.022,47.835-15.324,71.214-24.257,3.621-1.381,2.3-7.264-1.492-5.966" transform="translate(18.425 96.961)" fill="#5849bc"/>
    <path id="Trazado_34637" data-name="Trazado 34637" d="M242.868,444.13c-25.128,8.419-49.443,19.474-73.645,30.194-1.9.845-.618,4.04,1.36,3.409,25.27-8.037,50.771-15.915,75.2-26.293,4.1-1.741,1.315-8.727-2.915-7.31" transform="translate(34.372 90.672)" fill="#5849bc"/>
    <path id="Trazado_34638" data-name="Trazado 34638" d="M47.007,451.786c-14.415,1.273-28.85,5.146-42.94,8.341a1.883,1.883,0,0,0,.667,3.7c14.316-1.921,29.2-3.329,43.152-7.164a2.481,2.481,0,0,0-.879-4.881" transform="translate(0.527 92.271)" fill="#5849bc"/>
    <path id="Trazado_34639" data-name="Trazado 34639" d="M71.242,445.67c-5.951,2.581-11.706,4.616-18.188,5.366-1.681.193-1.6,3.034.13,3.014,6.874-.093,13.85-1.143,20.123-4.072,2.79-1.3.751-5.532-2.065-4.309" transform="translate(10.588 90.98)" fill="#5849bc"/>
    <path id="Trazado_34640" data-name="Trazado 34640" d="M106.986,438.73c-7.989,1.207-15.9,3.382-23.724,5.369a1.761,1.761,0,0,0,.624,3.465c8.027-.873,16.2-1.591,24.105-3.25,3.573-.749,2.61-6.128-1.006-5.583" transform="translate(16.722 89.599)" fill="#5849bc"/>
    <path id="Trazado_34641" data-name="Trazado 34641" d="M179.345,426.714c-20.249,3.226-40.422,7.407-60.333,12.29a1.554,1.554,0,0,0,.55,3.056c20.363-2.37,40.729-5.49,60.83-9.532,3.73-.748,2.714-6.417-1.048-5.815" transform="translate(24.057 87.144)" fill="#5849bc"/>
    <path id="Trazado_34642" data-name="Trazado 34642" d="M198.011,420.213c-.313-.217-.625-.44-.938-.656-5.142-3.6-10.725,4.429-5.556,8q.47.325.943.652c5.16,3.561,10.692-4.4,5.552-7.994" transform="translate(38.695 85.506)" fill="#5849bc"/>
    <path id="Trazado_34643" data-name="Trazado 34643" d="M215.321,419.75a8.682,8.682,0,0,0-.7,2.047c-.774,2.819,1.945,6.025,4.915,4.462a24.192,24.192,0,0,0,2.714-1.7c5.43-3.8-3.919-12.076-6.927-4.811" transform="translate(43.807 85.141)" fill="#5849bc"/>
    <path id="Trazado_34644" data-name="Trazado 34644" d="M11.837,392.288c-.523.153-1.043.306-1.563.462a4.421,4.421,0,0,0,1.567,8.7c.542-.039,1.084-.072,1.626-.112,5.931-.4,4.082-10.741-1.629-9.046" transform="translate(1.388 80.083)" fill="#5849bc"/>
    <path id="Trazado_34645" data-name="Trazado 34645" d="M42.16,393.5l-1.4.695a4.6,4.6,0,0,0,1.562,8.667c.518.054,1.036.11,1.553.16,8.349.854,5.859-13.256-1.715-9.522" transform="translate(7.813 80.24)" fill="#5849bc"/>
    <path id="Trazado_34646" data-name="Trazado 34646" d="M147.724,392.588c-25.269-.159-50.724.436-75.93,2.3-1.852.136-1.686,3.156.142,3.253,25,1.29,50.212,1.3,75.23.573,3.874-.113,4.564-6.1.558-6.126" transform="translate(14.396 80.178)" fill="#5849bc"/>
    <path id="Trazado_34647" data-name="Trazado 34647" d="M234.425,390.022c-26.5-.334-53.1,2.089-79.482,4.233-2.073.171-1.915,3.61.16,3.667,26.507.741,53.179,1.709,79.665-.037,4.442-.294,4.117-7.806-.343-7.862" transform="translate(31.344 79.653)" fill="#5849bc"/>
    <path id="Trazado_34648" data-name="Trazado 34648" d="M45.431,337.676c-14.052-3.459-28.963-4.463-43.33-6a1.884,1.884,0,0,0-.567,3.722c14.168,2.813,28.708,6.295,43.15,7.178a2.481,2.481,0,0,0,.747-4.9" transform="translate(0 67.74)" fill="#5849bc"/>
    <path id="Trazado_34649" data-name="Trazado 34649" d="M70.172,340.19c-6.467.517-12.57.58-18.946-.806-1.652-.361-2.493,2.354-.85,2.894,6.533,2.136,13.474,3.4,20.357,2.657,3.062-.33,2.5-4.992-.56-4.745" transform="translate(10.107 69.31)" fill="#5849bc"/>
    <path id="Trazado_34650" data-name="Trazado 34650" d="M106.24,345.2c-7.95-1.443-16.134-1.942-24.185-2.6a1.762,1.762,0,0,0-.53,3.481c7.878,1.77,15.843,3.734,23.861,4.721,3.622.448,4.452-4.954.854-5.607" transform="translate(16.358 69.973)" fill="#5849bc"/>
    <path id="Trazado_34651" data-name="Trazado 34651" d="M178.962,356.133c-20.2-3.5-40.644-6.067-61.065-7.887a1.554,1.554,0,0,0-.468,3.07c20.035,4.345,40.316,7.979,60.643,10.658,3.772.5,4.645-5.194.89-5.841" transform="translate(23.725 71.125)" fill="#5849bc"/>
    <path id="Trazado_34652" data-name="Trazado 34652" d="M198.277,357.833c-.226-.307-.45-.618-.674-.925-3.7-5.069-11.582.723-7.846,5.772.225.306.453.614.68.921,3.731,5.04,11.541-.7,7.84-5.768" transform="translate(38.556 72.496)" fill="#5849bc"/>
    <path id="Trazado_34653" data-name="Trazado 34653" d="M214.845,363.012a8.625,8.625,0,0,0-1.326,1.71c-1.645,2.417-.11,6.33,3.206,5.812a24.421,24.421,0,0,0,3.119-.729c6.367-1.84.2-12.7-5-6.793" transform="translate(43.474 73.787)" fill="#5849bc"/>
    <path id="Trazado_34654" data-name="Trazado 34654" d="M31.135,271.125c-.543-.024-1.085-.048-1.628-.067a4.421,4.421,0,0,0-1.331,8.734c.525.138,1.048.282,1.574.42,5.743,1.538,7.337-8.843,1.385-9.087" transform="translate(5.02 55.36)" fill="#5849bc"/>
    <path id="Trazado_34655" data-name="Trazado 34655" d="M59.463,282.066l-1.55.2a4.6,4.6,0,0,0-1.326,8.707q.71.329,1.419.653c7.624,3.51,9.831-10.648,1.457-9.563" transform="translate(11.024 57.598)" fill="#5849bc"/>
    <path id="Trazado_34656" data-name="Trazado 34656" d="M159.537,315.223c-23.86-8.325-48.138-16-72.592-22.384-1.8-.471-2.616,2.441-.918,3.123,23.236,9.308,47.092,17.472,71,24.877,3.7,1.148,6.293-4.3,2.51-5.615" transform="translate(17.381 59.8)" fill="#5849bc"/>
    <path id="Trazado_34657" data-name="Trazado 34657" d="M242.528,340.519c-24.966-8.887-50.92-15.2-76.578-21.7-2.018-.509-2.982,2.8-1.036,3.52,24.841,9.275,49.768,18.819,75.394,25.736,4.3,1.157,6.422-6.056,2.219-7.552" transform="translate(33.466 65.105)" fill="#5849bc"/>
    <path id="Trazado_34658" data-name="Trazado 34658" d="M81.436,228.55C69.31,220.653,55.563,214.789,42.5,208.6a1.884,1.884,0,0,0-1.762,3.327c12.448,7.325,25.029,15.406,38.372,21a2.481,2.481,0,0,0,2.322-4.382" transform="translate(8.126 42.564)" fill="#5849bc"/>
    <path id="Trazado_34659" data-name="Trazado 34659" d="M103.947,239.094c-6.275-1.644-12.059-3.595-17.622-7.006-1.441-.885-3.129,1.4-1.757,2.453,5.464,4.17,11.6,7.651,18.344,9.218,3,.7,4.007-3.888,1.034-4.665" transform="translate(17.169 47.361)" fill="#5849bc"/>
    <path id="Trazado_34660" data-name="Trazado 34660" d="M136.357,255.7c-7.03-3.982-14.593-7.152-21.977-10.422a1.762,1.762,0,0,0-1.647,3.112c6.852,4.268,13.726,8.748,20.971,12.322,3.272,1.616,5.836-3.211,2.654-5.012" transform="translate(22.842 50.059)" fill="#5849bc"/>
    <path id="Trazado_34661" data-name="Trazado 34661" d="M201.4,290c-17.922-9.961-36.373-19.125-55.053-27.574a1.554,1.554,0,0,0-1.454,2.744c17.483,10.7,35.432,20.821,53.742,30.051,3.395,1.714,6.1-3.373,2.765-5.222" transform="translate(29.432 53.566)" fill="#5849bc"/>
    <path id="Trazado_34662" data-name="Trazado 34662" d="M219.288,297.8c-.112-.365-.222-.732-.332-1.1-1.826-6.006-11.173-3.136-9.31,2.862.112.365.226.73.34,1.095,1.862,5.988,11.128,3.139,9.3-2.861" transform="translate(42.769 59.922)" fill="#5849bc"/>
    <path id="Trazado_34663" data-name="Trazado 34663" d="M233.262,308.132a8.657,8.657,0,0,0-1.816,1.178c-2.349,1.74-2.188,5.94,1.112,6.543a24.32,24.32,0,0,0,3.185.341c6.617.361,4.37-11.921-2.481-8.061" transform="translate(46.946 62.78)" fill="#5849bc"/>
    <path id="Trazado_34664" data-name="Trazado 34664" d="M90.037,160.882c-.506-.2-1.009-.4-1.515-.6a4.421,4.421,0,0,0-4.135,7.808c.449.3.9.612,1.348.916,4.915,3.344,9.841-5.932,4.3-8.124" transform="translate(16.784 32.654)" fill="#5849bc"/>
    <path id="Trazado_34665" data-name="Trazado 34665" d="M113.2,180.512l-1.531-.318a4.6,4.6,0,0,0-4.122,7.783c.375.362.749.725,1.125,1.084,6.04,5.827,12.791-6.814,4.528-8.549" transform="translate(21.685 36.782)" fill="#5849bc"/>
    <path id="Trazado_34666" data-name="Trazado 34666" d="M196.553,244.976c-19.782-15.723-40.176-30.968-61.157-45.06-1.54-1.037-3.274,1.441-1.9,2.646,18.87,16.446,38.7,32.018,58.833,46.89,3.117,2.3,7.357-1.982,4.22-4.475" transform="translate(27.164 40.781)" fill="#5849bc"/>
    <path id="Trazado_34667" data-name="Trazado 34667" d="M266.584,296.2c-20.642-16.62-43.065-31.133-65.145-45.732-1.738-1.145-3.736,1.657-2.138,2.983,20.4,16.945,40.784,34.17,62.7,49.146,3.677,2.511,8.059-3.6,4.583-6.4" transform="translate(40.586 51.102)" fill="#5849bc"/>
    <path id="Trazado_34668" data-name="Trazado 34668" d="M161.277,128.563c-8.4-11.785-19.049-22.27-28.939-32.8a1.883,1.883,0,0,0-2.856,2.452c8.907,11.37,17.659,23.492,28.032,33.579a2.481,2.481,0,0,0,3.763-3.23" transform="translate(26.356 19.43)" fill="#5849bc"/>
    <path id="Trazado_34669" data-name="Trazado 34669" d="M178.347,146.622c-5.24-3.825-9.908-7.757-13.838-12.965-1.019-1.352-3.425.159-2.533,1.639,3.56,5.879,8,11.363,13.7,15.289,2.537,1.746,5.152-2.154,2.67-3.963" transform="translate(33.043 27.191)" fill="#5849bc"/>
    <path id="Trazado_34670" data-name="Trazado 34670" d="M202.452,173.927c-5.088-6.278-10.966-11.993-16.644-17.737a1.761,1.761,0,0,0-2.671,2.293c4.817,6.48,9.575,13.162,15.011,19.139,2.454,2.7,6.605-.854,4.3-3.695" transform="translate(37.323 31.782)" fill="#5849bc"/>
    <path id="Trazado_34671" data-name="Trazado 34671" d="M250.426,229.651c-13.037-15.826-26.858-31.1-41.154-45.8a1.554,1.554,0,0,0-2.357,2.023c12.356,16.357,25.361,32.338,39.027,47.623,2.534,2.838,6.908-.908,4.483-3.848" transform="translate(42.189 37.445)" fill="#5849bc"/>
    <path id="Trazado_34672" data-name="Trazado 34672" d="M264.469,243.275c.029-.381.061-.761.091-1.142.5-6.257-9.252-7-9.712-.741l-.083,1.144c-.459,6.252,9.208,6.992,9.7.738" transform="translate(52.031 48.416)" fill="#5849bc"/>
    <path id="Trazado_34673" data-name="Trazado 34673" d="M273.7,257.938a8.643,8.643,0,0,0-2.121.432c-2.823.76-4.209,4.728-1.358,6.5a24.144,24.144,0,0,0,2.84,1.481c6.026,2.758,8.427-9.5.639-8.409" transform="translate(54.87 52.668)" fill="#5849bc"/>
    <path id="Trazado_34674" data-name="Trazado 34674" d="M194.209,68.606c-.4-.373-.791-.744-1.191-1.113a4.42,4.42,0,0,0-6.7,5.754c.307.448.611.9.92,1.346,3.35,4.91,11.328-1.921,6.975-5.987" transform="translate(37.861 13.497)" fill="#5849bc"/>
    <path id="Trazado_34675" data-name="Trazado 34675" d="M208.614,95.338l-1.308-.855a4.6,4.6,0,0,0-6.684,5.736c.217.473.432.948.651,1.42,3.491,7.632,14.4-1.663,7.34-6.3" transform="translate(40.889 19.144)" fill="#5849bc"/>
    <path id="Trazado_34676" data-name="Trazado 34676" d="M262.4,185.964c-12.66-21.869-26.066-43.517-40.44-64.307-1.055-1.528-3.574.146-2.731,1.77,11.547,22.209,24.31,43.954,37.607,65.158,2.058,3.283,7.572.845,5.564-2.622" transform="translate(44.741 24.725)" fill="#5849bc"/>
    <path id="Trazado_34677" data-name="Trazado 34677" d="M308.857,259.243c-13.133-23.019-28.695-44.727-43.905-66.39-1.2-1.7-4.082.176-3.079,1.994,12.784,23.231,25.459,46.72,40.378,68.673,2.5,3.681,8.817-.4,6.606-4.277" transform="translate(53.443 39.252)" fill="#5849bc"/>
    <path id="Trazado_34678" data-name="Trazado 34678" d="M259.731,69.3C255.686,55.405,249.088,42,243.22,28.793a1.883,1.883,0,0,0-3.5,1.374c4.66,13.671,8.929,28,15.4,40.942a2.481,2.481,0,0,0,4.617-1.809" transform="translate(48.936 5.647)" fill="#5849bc"/>
    <path id="Trazado_34679" data-name="Trazado 34679" d="M269.866,91.989c-3.685-5.338-6.8-10.589-8.791-16.8-.515-1.612-3.286-.978-2.931.713,1.422,6.724,3.807,13.365,7.9,18.95,1.82,2.486,5.574-.335,3.827-2.861" transform="translate(52.718 15.166)" fill="#5849bc"/>
    <path id="Trazado_34680" data-name="Trazado 34680" d="M283.643,125.709c-2.734-7.6-6.4-14.939-9.868-22.232a1.761,1.761,0,0,0-3.277,1.284c2.412,7.7,4.7,15.583,7.864,23.017,1.427,3.36,6.517,1.372,5.281-2.069" transform="translate(55.227 20.916)" fill="#5849bc"/>
    <path id="Trazado_34681" data-name="Trazado 34681" d="M310.557,194.14c-7.092-19.239-15.106-38.217-23.759-56.8a1.554,1.554,0,0,0-2.893,1.132c6.274,19.517,13.285,38.891,21.15,57.827,1.456,3.514,6.821,1.419,5.5-2.156" transform="translate(57.967 27.857)" fill="#5849bc"/>
    <path id="Trazado_34682" data-name="Trazado 34682" d="M319.6,211.485c.153-.349.309-.7.462-1.048,2.533-5.743-6.426-9.663-8.925-3.9q-.229.526-.456,1.051c-2.493,5.754,6.39,9.636,8.919,3.9" transform="translate(63.365 41.606)" fill="#5849bc"/>
    <path id="Trazado_34683" data-name="Trazado 34683" d="M323.375,228.349a8.693,8.693,0,0,0-2.145-.291c-2.915-.213-5.532,3.076-3.424,5.685A24.041,24.041,0,0,0,320,236.077c4.781,4.591,11.086-6.186,3.375-7.728" transform="translate(64.753 46.577)" fill="#5849bc"/>
    <path id="Trazado_34684" data-name="Trazado 34684" d="M310.745,23.437c-.252-.483-.5-.963-.757-1.444a4.42,4.42,0,0,0-8.226,3.223c.142.525.282,1.049.425,1.574,1.545,5.741,11.328,1.922,8.559-3.353" transform="translate(61.591 3.949)" fill="#5849bc"/>
    <path id="Trazado_34685" data-name="Trazado 34685" d="M315.55,53.407l-.953-1.239a4.605,4.605,0,0,0-8.2,3.212c.048.52.1,1.038.147,1.556.78,8.357,14.14,3.177,9.007-3.528" transform="translate(62.575 10.295)" fill="#5849bc"/>
    <path id="Trazado_34686" data-name="Trazado 34686" d="M336.266,156.829C331.521,132.01,326,107.153,319.282,82.788c-.493-1.791-3.424-1.042-3.162.77,3.581,24.774,8.463,49.511,14.029,73.913.861,3.779,6.87,3.295,6.116-.641" transform="translate(64.562 16.7)" fill="#5849bc"/>
    <path id="Trazado_34687" data-name="Trazado 34687" d="M355.987,241.316c-4.812-26.061-12.348-51.685-19.569-77.151-.571-2-3.914-1.179-3.566.867,4.415,26.147,8.638,52.5,15.488,78.146,1.15,4.3,8.457,2.525,7.647-1.862" transform="translate(67.977 33.295)" fill="#5849bc"/>
  </g>
</svg>
