<svg xmlns="http://www.w3.org/2000/svg" xmlns:xlink="http://www.w3.org/1999/xlink" width="190.409" height="92.664" viewBox="0 0 190.409 92.664">
  <defs>
    <clipPath id="clip-path">
      <rect id="Rectángulo_551" data-name="Rectángulo 551" width="190.409" height="92.664" fill="#fbfbfc" stroke="#fbfbfb" stroke-width="0.5"/>
    </clipPath>
  </defs>
  <g id="Grupo_711" data-name="Grupo 711" transform="translate(190.409 92.664) rotate(180)" opacity="0.502">
    <g id="Grupo_297" data-name="Grupo 297" clip-path="url(#clip-path)">
      <path id="Trazado_33465" data-name="Trazado 33465" d="M190.408,83.374c-.033-3.985-3.184-8.711-7.508-8.822-2.327-.06-3.879,1.733-5.194,3.412-1.488,1.9-3.158,4.073-5.651,4.527,1.067-1.861,3.152-2.832,4.692-4.265,1.912-1.78,2.516-4.287,3.018-6.756a.278.278,0,0,0-.263-.345,12.167,12.167,0,0,0-5.829.417,7.6,7.6,0,0,0-3.575,3.5q-.083.149-.162.3a14.119,14.119,0,0,0,.674-6.083.28.28,0,0,0-.273-.273c-3.069.038-5.523,2.159-7.19,4.608a8.613,8.613,0,0,0-.247-4.259,6.543,6.543,0,0,0-2.485-3.13,6.236,6.236,0,0,0,3.227-5.749c-.042-.682-.114-.911-.764-1.2a3.944,3.944,0,0,0-1.781-.3,6.3,6.3,0,0,0-2.6.8A6.386,6.386,0,0,0,153.045,49.7a5.122,5.122,0,0,0-6.073-3.754.276.276,0,0,0-.2.263,12.579,12.579,0,0,0,1.794,6.282c.538.885,1.25,1.666,1.714,2.595a4.442,4.442,0,0,1-.037,3.7,22.654,22.654,0,0,1-2.838,4.92,25.18,25.18,0,0,1-3.643,4.048,17.506,17.506,0,0,1-9.562,4.515c-6.162.691-13.33-2-16.382-7.636a6.215,6.215,0,0,0,2.261-4.7,9.591,9.591,0,0,0,1.661,4.59c3.173,4.589,9.488,5.5,14.283,3.079a13.983,13.983,0,0,0,5.912-5.779,16.214,16.214,0,0,0,1.768-8.827,17.671,17.671,0,0,0-6.653-13.1A18.656,18.656,0,0,0,130,36.67a19.539,19.539,0,0,0-8.312-.369c1.04-2.961,1.086-7.09-1.28-9.405a4.055,4.055,0,0,0-4.066-1.061,7.217,7.217,0,0,0-3.158,2.243c.981-3.683,1.166-8.231-2.121-10.663a6.7,6.7,0,0,0-.535-8.058,7.341,7.341,0,0,0-7.257-2.338A8.773,8.773,0,0,0,95.187,0,8.774,8.774,0,0,0,87.1,7.019a7.341,7.341,0,0,0-7.257,2.338,6.7,6.7,0,0,0-.535,8.058c-3.287,2.432-3.1,6.98-2.121,10.663a7.073,7.073,0,0,0-3.27-2.277A4.057,4.057,0,0,0,69.962,26.9c-2.36,2.326-2.323,6.439-1.28,9.407a20.147,20.147,0,0,0-9.449.673,17.507,17.507,0,0,0-7.3,4.107,18.255,18.255,0,0,0-5.286,14.186,14.37,14.37,0,0,0,9.4,13.041c5.174,1.76,11.345-.354,13.549-5.55A9.475,9.475,0,0,0,70.3,60a6.215,6.215,0,0,0,2.257,4.633,14.781,14.781,0,0,1-8.106,6.6,17.983,17.983,0,0,1-9.555.837,18.482,18.482,0,0,1-9.264-5.241A26.332,26.332,0,0,1,42.142,62.5c-1.014-1.565-2.213-3.4-2.425-5.283-.245-2.169,1.576-3.664,2.494-5.44A12.652,12.652,0,0,0,43.6,46.211a.276.276,0,0,0-.2-.263A5.122,5.122,0,0,0,37.329,49.7a6.386,6.386,0,0,0-5.452,10.066,6.27,6.27,0,0,0-2.6-.8,3.945,3.945,0,0,0-1.875.342c-.589.276-.631.528-.669,1.152a6.236,6.236,0,0,0,3.227,5.749,6.531,6.531,0,0,0-2.52,3.223,8.712,8.712,0,0,0-.213,4.166c-1.667-2.448-4.121-4.569-7.189-4.607a.279.279,0,0,0-.273.273,14.116,14.116,0,0,0,.674,6.083q-.08-.154-.162-.3A7.554,7.554,0,0,0,16.6,71.5a12.407,12.407,0,0,0-5.725-.373.278.278,0,0,0-.263.345c.5,2.469,1.107,4.976,3.018,6.756,1.539,1.433,3.623,2.4,4.69,4.263-2.852-.515-4.544-3.215-6.274-5.308-1.358-1.643-3.054-2.926-5.3-2.556a8.176,8.176,0,0,0-5.117,3.558,9.447,9.447,0,0,0,1.1,11.936l.007.005a.287.287,0,0,0,.536,0c1.338-3.426,4.908-5.287,8.4-5.737,4.2-.541,8.336,1,12.163,2.541a90.6,90.6,0,0,0,11.328,3.93,56.284,56.284,0,0,0,11.983,1.775,39.951,39.951,0,0,0,20.8-4.67,35.63,35.63,0,0,0,5.413-3.674A3.821,3.821,0,0,0,74,87.671a2.955,2.955,0,0,0,2.483,1.118,3.793,3.793,0,0,0,1.552-.5,6.633,6.633,0,0,0-.886,3.056.274.274,0,0,0,.2.263,4.93,4.93,0,0,0,5.932-3.933,11.868,11.868,0,0,0,.12-1.33,5.838,5.838,0,0,0,2.787,4.091,2.113,2.113,0,0,0,2.709-.647,4.218,4.218,0,0,0,.663-2.965,13.3,13.3,0,0,0,2.506,1.5.281.281,0,0,0,.373-.1,10.613,10.613,0,0,0,2.148-5.99,8.031,8.031,0,0,0-1.437-4.14c-.817-1.372-1.93-3.215-1.112-4.837,1.388-2.75,6.552-2.078,6.559,1.229,0,1.761-1.222,3.208-2,4.691a6.942,6.942,0,0,0-.75,4.123,11.108,11.108,0,0,0,2.084,4.924.281.281,0,0,0,.373.1,13.3,13.3,0,0,0,2.507-1.5,4.151,4.151,0,0,0,.726,3.042,2.094,2.094,0,0,0,2.645.571,5.837,5.837,0,0,0,2.787-4.091,11.873,11.873,0,0,0,.12,1.33,4.93,4.93,0,0,0,5.932,3.933.274.274,0,0,0,.2-.263,6.632,6.632,0,0,0-.888-3.059,3.5,3.5,0,0,0,2,.5,3.1,3.1,0,0,0,2.492-1.867,4.038,4.038,0,0,0,.218-2.6,36,36,0,0,0,7.675,4.809,41.717,41.717,0,0,0,21.511,3.317,59.822,59.822,0,0,0,11.653-2.325c3.9-1.176,7.583-2.875,11.411-4.243,3.4-1.214,7.048-2.072,10.639-1.264,3.056.688,5.988,2.5,7.167,5.518a.287.287,0,0,0,.536,0l.008-.005a9.574,9.574,0,0,0,2.76-6.744m-84.388-34.4a19.732,19.732,0,0,1-6.781,8.655,18.5,18.5,0,0,1-3.906-.2.578.578,0,0,1-.293,0,18.51,18.51,0,0,1-3.915.2,19.754,19.754,0,0,1-6.772-8.649,20.45,20.45,0,0,1-1.527-12.325.99.99,0,0,0,.638-.736c.14-.5.171-1.009.351-1.5a5.78,5.78,0,0,1,.786-1.455,4.98,4.98,0,0,1,2.845-1.973c.66-.127,1.652.065,1.814.839a1.584,1.584,0,0,1-.61,1.381.285.285,0,0,0-.087.1q-.3.181-.579.393a8.853,8.853,0,0,0-2.947,4.538,17.193,17.193,0,0,0,1.227,12.357c.154.315.624.039.471-.275a17.249,17.249,0,0,1-1.69-9.328c.275-2.643,1.255-5.509,3.55-7.061a6.2,6.2,0,0,1,3.534-1.081c.43.007.619-.006.746.431a5.536,5.536,0,0,1,.2,1.071,5.783,5.783,0,0,1-.179,1.989c-.71,2.655-3.173,4.076-4.711,6.189-1.213,1.667-1.757,4.131-.13,5.733a.276.276,0,0,0,.465-.193c.169-2.046.571-4.934,2.907-5.639a2.341,2.341,0,0,1,2.6.8c.636.965.328,2.324.035,3.356a6.7,6.7,0,0,1-1.614,2.621,2.315,2.315,0,0,0-.666,1.857c.292,2,2.951,2.616,3.131,4.593a.273.273,0,0,0,.545,0c.18-1.977,2.84-2.6,3.131-4.593a2.319,2.319,0,0,0-.666-1.857,6.716,6.716,0,0,1-1.614-2.621c-.293-1.029-.6-2.394.035-3.356a2.346,2.346,0,0,1,2.6-.8c2.337.685,2.738,3.608,2.906,5.639a.276.276,0,0,0,.465.193c1.875-1.845.865-4.592-.6-6.326-1.791-2.124-4.257-3.74-4.435-6.778a3.926,3.926,0,0,1,.284-2.1c.281-.4,1.389-.19,1.823-.109a6.407,6.407,0,0,1,3.214,1.649c1.961,1.866,2.68,4.75,2.793,7.368a17.329,17.329,0,0,1-1.761,8.356c-.154.314.317.59.471.275a17.193,17.193,0,0,0,1.227-12.357,8.854,8.854,0,0,0-2.947-4.538,6.964,6.964,0,0,0-.579-.393.281.281,0,0,0-.087-.1,1.343,1.343,0,0,1-.4-1.8,1.947,1.947,0,0,1,2.195-.236,5.525,5.525,0,0,1,2.69,2.472,5.644,5.644,0,0,1,.592,1.65,2.457,2.457,0,0,0,.309,1.062.688.688,0,0,0,.435.289,20.463,20.463,0,0,1-1.526,12.331M86.641,65.585A10.188,10.188,0,0,0,83.71,69a27.26,27.26,0,0,0,1.065-5.833c.018.047.034.093.053.14a5.2,5.2,0,0,0,1.813,2.279m-2.68-10.56a8.685,8.685,0,0,0,2.425,1.9c.243.128.491.241.74.347a4.3,4.3,0,0,0-2.1,1.943,4.617,4.617,0,0,0-.242.5,22.932,22.932,0,0,0-.818-4.691m6.719,3.114a4.221,4.221,0,0,0-1.77,3.727,4.748,4.748,0,0,0,2.633,3.809,4.78,4.78,0,0,1-6.135-2.393,4.1,4.1,0,0,1-.007-3.621,3.413,3.413,0,0,1,2.659-2.038,12.28,12.28,0,0,0,2.619.517m10.238,3.727a4.188,4.188,0,0,1-2.136,3.22,4.974,4.974,0,0,0,.853-2.8,4.82,4.82,0,0,0-2.208-4.113q.635.031,1.27.016c.008,0,.016.01.025.014a3.686,3.686,0,0,1,2.2,3.663m-7.815-3.7a4.819,4.819,0,0,0-2.216,4.118,4.966,4.966,0,0,0,.938,2.924,4.207,4.207,0,0,1-2.37-3.344,3.685,3.685,0,0,1,2.2-3.663l.018-.01c.477.012.955,0,1.433-.025m2.158,8.313a4.213,4.213,0,1,1,3.829-4.195,4.029,4.029,0,0,1-3.829,4.195m4.427-8.345a12.36,12.36,0,0,0,2.625-.513,3.446,3.446,0,0,1,2.7,2.123,4.1,4.1,0,0,1-.048,3.536,4.78,4.78,0,0,1-6.135,2.393,4.747,4.747,0,0,0,2.633-3.809,4.22,4.22,0,0,0-1.775-3.73m3.569-.857a9.491,9.491,0,0,0,1.669-.916,8.512,8.512,0,0,0,1.475-1.3,22.937,22.937,0,0,0-.806,4.653,4.594,4.594,0,0,0-.243-.5,4.305,4.305,0,0,0-2.1-1.939M106.665,69a10.169,10.169,0,0,0-2.931-3.415,5.194,5.194,0,0,0,1.812-2.278c.019-.047.036-.094.054-.14A27.26,27.26,0,0,0,106.665,69M73.894,84.324c.4-1.245,1.792-1.142,2.856-1.3a9.718,9.718,0,0,0,2.794-.8,5.953,5.953,0,0,0,3.139-4.26c.514-2.277.166-4.664.8-6.921a9.434,9.434,0,0,1,3.586-5.095.292.292,0,0,0,.058-.056,5.408,5.408,0,0,0,5.221.013.257.257,0,0,0,.053-.041,4.1,4.1,0,0,0,5.669.059,5.409,5.409,0,0,0,5.186-.031.293.293,0,0,0,.057.055,9.447,9.447,0,0,1,3.788,5.982c.409,2.274.086,4.646.824,6.867a5.768,5.768,0,0,0,3.55,3.7,11.915,11.915,0,0,0,2.855.623,3.307,3.307,0,0,1,1.645.444,2.135,2.135,0,0,1,.644,1.772,2.862,2.862,0,0,1-1.968,2.855c-1.266.323-2.442-.563-3.382-1.293-.269-.209-.642.131-.386.386a6.028,6.028,0,0,1,1.779,3.837,4.416,4.416,0,0,1-4.544-2.183c-.823-1.472-.314-3.206-1.065-4.686a.275.275,0,0,0-.508.138,6.05,6.05,0,0,1-1.823,4.975c-.925.874-2.14,1.125-2.93-.066a4.641,4.641,0,0,1-.392-3,5.564,5.564,0,0,0,.458-.53,7.335,7.335,0,0,0,1.189-5.56c-.05-.332-.113-.661-.185-.989a.265.265,0,0,0,.028-.044,8.816,8.816,0,0,0,.069-6.522c-.24-.532-.679-1.087-1.329-1.019a1.35,1.35,0,0,0-1.07,1.474,11.654,11.654,0,0,0,.863,3.118,32.307,32.307,0,0,1,.914,3.141,7.362,7.362,0,0,1-.831,5.962,8.159,8.159,0,0,1-3.239,2.411c-1.392-2.141-2.541-4.677-1.651-7.257.862-2.5,4.278-5.871,1.491-8.4-1.807-1.637-5.138-1.448-6.447.744-1.839,3.08,2.178,6.041,2.375,9a9.535,9.535,0,0,1-1.921,5.908A7.59,7.59,0,0,1,88.5,84.72c-1.052-1.948-.8-4.156-.251-6.214.294-1.1.671-2.168,1.019-3.248.269-.833.777-1.9.464-2.787a1.164,1.164,0,0,0-1.372-.809c-.657.193-.955.925-1.136,1.522a9.255,9.255,0,0,0,.263,5.983.265.265,0,0,0,.028.044c-.072.327-.136.656-.185.989a7.337,7.337,0,0,0,1.189,5.56,5.559,5.559,0,0,0,.458.529,4.384,4.384,0,0,1-.492,3.135c-.828,1.072-1.956.762-2.83-.064a6.049,6.049,0,0,1-1.823-4.975.275.275,0,0,0-.508-.138c-.75,1.478-.242,3.215-1.065,4.686a4.417,4.417,0,0,1-4.544,2.183A6.027,6.027,0,0,1,79.5,87.278c.257-.255-.117-.594-.386-.386-1.1.857-2.531,1.851-3.941,1.064a3.149,3.149,0,0,1-1.275-3.632m13.861-6.073a8.805,8.805,0,0,1-.354-2.888,8.191,8.191,0,0,1,.349-2.035c.147-.474.8-1.845,1.405-.816.38.645-.131,1.716-.335,2.36-.178.562-.367,1.12-.549,1.68s-.36,1.128-.516,1.7m14.349-1.7c-.182-.56-.371-1.119-.549-1.68-.2-.644-.715-1.715-.335-2.36.6-1.025,1.255.331,1.405.816a8.221,8.221,0,0,1,.349,2.035,8.77,8.77,0,0,1-.354,2.888c-.156-.571-.333-1.136-.516-1.7m12.426,6.039a10.152,10.152,0,0,1-3.609-.936,5.111,5.111,0,0,1-2.475-3.007c-.752-2.253-.415-4.677-.849-6.985a30.173,30.173,0,0,0,1.979,4.009,32.234,32.234,0,0,0,5.629,7.021c-.221-.045-.448-.076-.675-.1m-39.353.089a31.872,31.872,0,0,0,6.853-9.318q.4-.825.739-1.675c-.5,2.629.048,5.539-1.276,7.974a5.139,5.139,0,0,1-2.931,2.375,24.55,24.55,0,0,1-3.385.644m-28.561-14.2A19.677,19.677,0,0,0,51.6,71.594a8.951,8.951,0,0,0-6.12,2.878,8.813,8.813,0,0,0-.908,10.317c.358.584.851,1.092,1.158,1.707.342.686.291,2.188-.89,1.838-.787-.234-1.287-1.1-1.689-1.754-.37-.6-.731-1.206-1.049-1.836a7.412,7.412,0,0,1-.865-4.721c.274-1.515.916-2.935,1.17-4.457a13.676,13.676,0,0,0,.009-4.358.262.262,0,0,0-.19-.19,6.49,6.49,0,0,0-5.107,1.525A8.043,8.043,0,0,0,34.439,79.7c-.937-1.7-1.675-3.764-1.129-5.58a6.262,6.262,0,0,1,5.135-4.1.271.271,0,0,0,.2-.263A5.444,5.444,0,0,0,31,65.635c-.167.073-.33.154-.491.24a5.7,5.7,0,0,1-3.239-4.849,5.321,5.321,0,0,1,.011-.661c.037-.455.19-.526.616-.677a3.757,3.757,0,0,1,1.937-.109,9.709,9.709,0,0,1,3.333,1.6c.258.166.57-.232.33-.428a5.883,5.883,0,0,1,4.045-10.5.273.273,0,0,0,.263-.2,4.575,4.575,0,0,1,5.241-3.614,12.494,12.494,0,0,1-2.473,6.907,6.4,6.4,0,0,0-1.4,2.908,6.006,6.006,0,0,0,.6,3.078,25.674,25.674,0,0,0,6.846,9.149M73,64.958a5.634,5.634,0,0,0,.862.476,6.114,6.114,0,0,0,6.05-.761,3.583,3.583,0,0,1-2.4,2.9,22.273,22.273,0,0,1-4.337.865c-1.973.395-4.363,1.774-4.158,4.032A4.929,4.929,0,0,0,63.692,78.6a5.248,5.248,0,0,0,7.24,3.3,5.956,5.956,0,0,1-10.123-5.736.276.276,0,0,0-.263-.345,6.337,6.337,0,0,0-6.418,4.751,24.263,24.263,0,0,1-.959-8.4,15.8,15.8,0,0,0,3,.639c6.325.7,13.672-2.085,16.824-7.854m-2.685-5.127a9.406,9.406,0,0,0-.174-2.731,7.88,7.88,0,0,0,2.343-.68,6.478,6.478,0,0,1,.366,2.637,7.437,7.437,0,0,1-2.28.593.292.292,0,0,0-.254.182M76.5,48.423a7.665,7.665,0,0,1,.4,6.431,7.48,7.48,0,0,1-3.492,3.933,6.817,6.817,0,0,0-.439-2.616A7,7,0,0,0,76.491,51.7a7.608,7.608,0,0,0,.011-3.281M58.965,41.284a4.293,4.293,0,0,1,5.063.474,6.535,6.535,0,0,1,1.859,3.008,4.212,4.212,0,0,0-1.5-.183.262.262,0,0,0-.069.018,8.647,8.647,0,0,0-5.356-3.318m7.618,5.529c.692,1.841,2.122,3.084,3.235,4.653,1,1.4,1.748,3.755.15,4.969-.076-.258-.161-.514-.261-.766a7.019,7.019,0,0,0-4.521-4.087,5.491,5.491,0,0,0-1.085-.43,2.229,2.229,0,0,0,.945-1.132,5.6,5.6,0,0,0-.031-4.1,6.3,6.3,0,0,0-.374-.794,3.834,3.834,0,0,1,1.4.265.251.251,0,0,0,.059.01c.154.469.305.943.481,1.412m1.009,9.65a4.975,4.975,0,1,1-4.975-4.974,4.98,4.98,0,0,1,4.975,4.974m-5.525,5.492a4.191,4.191,0,0,1-3.586,1.057,5.5,5.5,0,0,1-3.913-2.375,8.14,8.14,0,0,1,.223-9.281,5.723,5.723,0,0,1,3.946-2.2,4.918,4.918,0,0,1,2.426.438A6.042,6.042,0,0,1,62.809,50.9c.022.021.044.037.065.056-.086,0-.17-.013-.257-.013a5.52,5.52,0,0,0-.55,11.012M69.031,36.93A15.256,15.256,0,0,1,76.1,40.4a13.3,13.3,0,0,1,2.739,4.266c.892,2.026,1.683,4.1,2.564,6.128a18.525,18.525,0,0,0,1.584,2.978c2.7,7.533,1.007,15.929-3.229,22.561A34.214,34.214,0,0,1,63.672,89.391a43.11,43.11,0,0,1-22.451,2.15,63.418,63.418,0,0,1-11.7-2.97c-3.714-1.314-7.276-3.089-11.092-4.1a16.208,16.208,0,0,0-9.672.061,9.841,9.841,0,0,0-5.823,5.014,8.777,8.777,0,0,1,.1-12.22c1.55-1.6,4.068-2.92,6.26-1.828,1.92.957,3.046,3.062,4.413,4.622A7.852,7.852,0,0,0,18.8,83.1c.228.02.31-.241.235-.41-.9-2.052-2.959-3.1-4.6-4.478C12.4,76.5,11.721,74.138,11.2,71.64c1.944-.177,4.035-.309,5.8.645a8.715,8.715,0,0,1,3.475,4.4c1.376,3.135,2.564,7.334,6.442,8.112a.276.276,0,0,0,.345-.263,4.337,4.337,0,0,0-1.912-3.085,15.151,15.151,0,0,1-3-3.353,13.763,13.763,0,0,1-2.063-8.557c3.237.17,5.708,2.85,7.208,5.515.16.285.552.079.5-.21a10.876,10.876,0,0,1-.142-4.9,5.978,5.978,0,0,1,2.937-3.605,5.1,5.1,0,0,1,4.621-.2,4.771,4.771,0,0,1,2.659,3.393A6.808,6.808,0,0,0,32.84,73.8c-.847,2.442.527,5.345,1.843,7.36a11.041,11.041,0,0,0,.429,1.386c1.449,3.766,4.608,6.444,7.823,8.7.288.2.56-.27.275-.471-3.339-2.346-6.975-5.6-8.022-9.652a.233.233,0,0,0-.026-.229l-.051-.08a9.115,9.115,0,0,1-.074-3.647,7.066,7.066,0,0,1,3.8-5.1c.561-.274,2.8-1.129,3.115-.3a5.79,5.79,0,0,1,.091,1.987,12.432,12.432,0,0,1-.254,2.149c-.487,2.337-1.6,4.451-1.011,6.89a12.055,12.055,0,0,0,1.359,3.149,8.27,8.27,0,0,0,1.829,2.507,1.525,1.525,0,0,0,2.132.03,1.955,1.955,0,0,0,.2-2.067c-.48-1.093-1.378-1.928-1.833-3.054a8.462,8.462,0,0,1-.6-3.312,8.189,8.189,0,0,1,8.765-7.9,24.676,24.676,0,0,0,1.344,9.705.274.274,0,0,0,.535-.072,5.771,5.771,0,0,1,5.7-5.425,6.519,6.519,0,0,0,12.006,4.764c.169-.289-.2-.508-.428-.33a4.768,4.768,0,0,1-7.567-2.332,4.368,4.368,0,0,1,4.96-5.406,5.892,5.892,0,0,0,5.691,2.375,7.86,7.86,0,0,0,5.213-3.313A13.16,13.16,0,0,0,82.25,65.8a35.653,35.653,0,0,0,.006-7.8,18.6,18.6,0,0,0-1.826-6.917c-.164-.311-.634-.035-.471.275a18.808,18.808,0,0,1,1.814,7.357,36.462,36.462,0,0,1-.02,6.652,13.372,13.372,0,0,1-1.911,6.142,7.4,7.4,0,0,1-5.084,3.386A5.323,5.323,0,0,1,69.6,72.7c-.313-1.517.943-2.742,2.233-3.3a20.276,20.276,0,0,1,4.33-.881c2.127-.41,4.7-1.923,4.243-4.454a.275.275,0,0,0-.456-.12,5.413,5.413,0,0,1-9.1-3.786,8.128,8.128,0,0,0,6.509-4.99,8.044,8.044,0,0,0-1.4-8.419,8.045,8.045,0,0,0-2.589-3.241c-.285-.207-.556.267-.275.471a7.388,7.388,0,0,1,2.382,3.012l0,0a7.338,7.338,0,0,1,.486,4.562,6.824,6.824,0,0,1-5.238,4.893,3.963,3.963,0,0,0,.216-4.18,14.03,14.03,0,0,0-2.076-2.833,9.875,9.875,0,0,1-1.983-3.424c-.673-2.079-1.324-4.115-3.349-5.263a4.679,4.679,0,0,0-5.412.489.274.274,0,0,0,.12.456,8.847,8.847,0,0,1,5.029,2.452,5.539,5.539,0,0,1,1.391,5.338c-.132.412-.5,1.4-1.136,1.256-.351-.078-.683-.629-.944-.86A5.065,5.065,0,0,0,61,48.94a5.522,5.522,0,0,0-4.093.121,7.529,7.529,0,0,0-4.21,7.156c.024,2.717,1.3,5.7,3.918,6.843,2.023.883,4.723.781,6.136-1.084a5.507,5.507,0,0,0,4.205-8.912,6.555,6.555,0,0,1,2.619,4.046,9.061,9.061,0,0,1-1.951,7.831c-3.563,4.189-9.844,4.331-14.251,1.464a13.627,13.627,0,0,1-5.114-6.216,17,17,0,0,1-.932-8.463,16.783,16.783,0,0,1,6.71-11.693,18.509,18.509,0,0,1,6.591-2.866,18.51,18.51,0,0,1,8.4-.237m-44.9,44.177c.939.874,2.328,1.733,2.555,3.08-2.944-.805-4.1-3.748-5.207-6.488a13.8,13.8,0,0,0,2.653,3.409M77.613,29.4a.264.264,0,0,0,.359.018.236.236,0,0,0,.094-.125l0-.008a.23.23,0,0,0,.008-.071s0,0,0-.007a5.147,5.147,0,0,1,.212-2.127,4.429,4.429,0,0,1,1.133-1.566,9.659,9.659,0,0,0,.9-1.148,7.432,7.432,0,0,0,.942,3.034c.5.7,1.35,1.083,1.772,1.846a4.238,4.238,0,0,1-.186,3.572c-.376.869-1.585,2.856-.549,3.672a20.988,20.988,0,0,0,1.492,12.557,21.232,21.232,0,0,0,6.23,8.457,11.516,11.516,0,0,1-1.82-.407l-.021-.007a8.721,8.721,0,0,1-3.426-1.984,9.477,9.477,0,0,1-1.239-1.465c-.017-.049-.033-.1-.051-.147a.27.27,0,0,0-.157-.164,35.6,35.6,0,0,1-2.573-5.51c-.7-1.634-1.294-3.319-2.126-4.89a11.314,11.314,0,0,0-3.147-3.794,17.25,17.25,0,0,0-6.154-2.7c-1.038-2.712-1.236-6.52.759-8.862A3.581,3.581,0,0,1,74.1,26.435,8.924,8.924,0,0,1,77.613,29.4M79.69,17.808c4.828,2.856,8.667,7.338,9.465,12.96a2.523,2.523,0,0,0-1.746-.331,5.9,5.9,0,0,0-4.217,4.115,6.357,6.357,0,0,0-.186.829c-.025.15-.121.943-.5.48-.194-.238.065-.9.145-1.151.24-.737.63-1.412.885-2.142a4.661,4.661,0,0,0,.053-3.429c-.381-.815-1.168-1.213-1.736-1.868a4.666,4.666,0,0,1-.79-2.144q-.17-.755-.33-1.512c-.053-.249-.373-.24-.5-.065a20.648,20.648,0,0,1-1.629,2,4.033,4.033,0,0,0-.992,2.013c-.847-3.416-.977-7.577,2.074-9.753M87.2,7.607a47.733,47.733,0,0,1,5.485,24.728,6.709,6.709,0,0,0-3.04.429,1.86,1.86,0,0,0,.162-1.025C89.319,25.427,85.194,20.4,79.87,17.28a6.16,6.16,0,0,1,.485-7.685A6.809,6.809,0,0,1,87.2,7.607m15.56-.381a48.292,48.292,0,0,0-5.6,25.372c-1.06,2.841.1,5.5,2.109,7.568a16.305,16.305,0,0,1,3,3.492,3.759,3.759,0,0,1,.071,3.709c-.188-1.8-.592-3.676-2.075-4.849a3.149,3.149,0,0,0-3.829-.176c-1.367,1.052-1.047,3.04-.615,4.482A5.579,5.579,0,0,0,97.007,49c.744.826,1.409,1.567.77,2.707-.658,1.173-2,1.82-2.587,2.982a4.519,4.519,0,0,0-.968-1.249c-.746-.718-1.908-1.51-1.917-2.664-.007-.97.986-1.58,1.491-2.3a6.533,6.533,0,0,0,.952-2.4c.319-1.488.289-3.291-1.291-4.027A3.332,3.332,0,0,0,89.6,43a7.417,7.417,0,0,0-1.56,4.364,3.8,3.8,0,0,1,.125-3.809,17,17,0,0,1,2.945-3.392c2.007-2.069,3.169-4.727,2.109-7.568a48.292,48.292,0,0,0-5.6-25.372A8.223,8.223,0,0,1,95.187.545a8.223,8.223,0,0,1,7.572,6.68M110.5,17.28c-5.332,3.121-9.461,8.161-9.938,14.486,0,0,0,.007,0,.011s0,.012,0,.017c0,.023,0,.046-.006.069a.221.221,0,0,0,0,.024,2,2,0,0,0,.175.879,6.709,6.709,0,0,0-3.044-.431,47.731,47.731,0,0,1,5.484-24.728,6.809,6.809,0,0,1,6.844,1.988,6.16,6.16,0,0,1,.485,7.685m2.254,10.281a4.032,4.032,0,0,0-.991-2.013,20.6,20.6,0,0,1-1.629-2,.276.276,0,0,0-.5.065c-.307,1.451-.416,3.089-1.6,4.11a3.7,3.7,0,0,0-1.51,2.233,5.488,5.488,0,0,0,.442,2.964,10.572,10.572,0,0,1,.9,2.383c.043.28.122.646-.227.58-.316-.06-.257-.365-.305-.639a6,6,0,0,0-.4-1.331c-.739-1.718-2.645-3.714-4.694-3.507a2.293,2.293,0,0,0-1.036.376c.794-5.629,4.635-10.116,9.467-12.974,3.051,2.177,2.922,6.337,2.074,9.753m8.306,8.878a16.484,16.484,0,0,0-6.659,3.1c-2.687,2.282-3.74,5.834-5.064,8.973a31.145,31.145,0,0,1-2.305,4.835.267.267,0,0,0-.13.148c-.012.034-.023.068-.035.1a8.65,8.65,0,0,1-2.22,2.294,10,10,0,0,1-4.311,1.621,21.223,21.223,0,0,0,6.24-8.464,20.989,20.989,0,0,0,1.492-12.559.978.978,0,0,0,.265-.335c.572-1.162-.663-2.78-1.012-3.853a3.459,3.459,0,0,1,.491-3.66,5.923,5.923,0,0,0,1.594-1.773,11.888,11.888,0,0,0,.637-2.505,9.981,9.981,0,0,0,.9,1.154,4.4,4.4,0,0,1,1.163,1.651,5.244,5.244,0,0,1,.182,2.041s0,0,0,.007a.228.228,0,0,0,.008.072l0,.008a.236.236,0,0,0,.093.124.264.264,0,0,0,.361-.018,8.722,8.722,0,0,1,3.618-3.007,3.579,3.579,0,0,1,3.925,1.184c2,2.339,1.8,6.15.76,8.861m1.718,20.024a4.975,4.975,0,1,1,4.975,4.975,4.98,4.98,0,0,1-4.975-4.975m10.494,0a5.526,5.526,0,0,0-5.52-5.52c-.079,0-.156.008-.235.012.258-.236.475-.543.729-.755,2.682-2.243,6.49-.631,7.989,2.16a8.046,8.046,0,0,1-1.252,9.234c-1.674,1.586-4.986,2.173-6.686.361a5.527,5.527,0,0,0,4.975-5.492m-12.869-.027c-1.643-1.242-.811-3.651.215-5.065,1.108-1.527,2.486-2.755,3.168-4.558.178-.469.33-.944.485-1.412a.25.25,0,0,0,.055-.009,3.827,3.827,0,0,1,1.4-.265,6.076,6.076,0,0,0-.68,1.9,4.847,4.847,0,0,0,.626,3.626,1.791,1.791,0,0,0,.561.505,5.484,5.484,0,0,0-1.05.421,7.065,7.065,0,0,0-4.778,4.854m5.578-11.853a4.21,4.21,0,0,0-1.493.181,6.406,6.406,0,0,1,1.985-3.11,4.268,4.268,0,0,1,4.933-.371,8.8,8.8,0,0,0-5.355,3.318.273.273,0,0,0-.07-.018M119.808,59.65a7.436,7.436,0,0,1-2.28-.593,6.483,6.483,0,0,1,.366-2.637,7.874,7.874,0,0,0,2.351.681,9.564,9.564,0,0,0-.165,2.815.278.278,0,0,0-.271-.266M113.883,51.7a7,7,0,0,0,3.523,4.467,6.815,6.815,0,0,0-.438,2.616,7.483,7.483,0,0,1-3.492-3.933,7.664,7.664,0,0,1,.4-6.431,7.608,7.608,0,0,0,.011,3.281M135.325,72.65a15.48,15.48,0,0,0,1.881-.466,24.268,24.268,0,0,1-.96,8.389,6.337,6.337,0,0,0-6.418-4.751.276.276,0,0,0-.263.345A5.956,5.956,0,0,1,119.441,81.9a5.248,5.248,0,0,0,7.241-3.3,4.929,4.929,0,0,0-5.321-6.131c.205-2.257-2.185-3.637-4.158-4.032a19.605,19.605,0,0,1-4.488-.928,3.534,3.534,0,0,1-2.251-2.838,6.115,6.115,0,0,0,6.051.761,5.611,5.611,0,0,0,.863-.476,15.285,15.285,0,0,0,8.141,6.7,18.632,18.632,0,0,0,9.806.992m24.539-6.775c-.16-.086-.323-.168-.491-.24a5.444,5.444,0,0,0-7.644,4.121.271.271,0,0,0,.2.263,6.261,6.261,0,0,1,5.135,4.1c.538,1.792-.174,3.825-1.094,5.514a8.841,8.841,0,0,0-.347-3.576,7.083,7.083,0,0,0-7.477-5.037.262.262,0,0,0-.19.19,13.522,13.522,0,0,0,.155,5.09c.385,1.684,1.185,3.311,1.136,5.071a9.489,9.489,0,0,1-1.54,4.406,10.663,10.663,0,0,1-1.253,1.891c-.557.606-1.738,1.182-2-.044a2.658,2.658,0,0,1,.8-2.039,9.334,9.334,0,0,0,1.037-1.72,8.963,8.963,0,0,0,.773-3.5,8.737,8.737,0,0,0-8.26-8.775,20.4,20.4,0,0,0,6.034-4.089,26.668,26.668,0,0,0,3.64-4.381,16.6,16.6,0,0,0,2.618-5.218,4.445,4.445,0,0,0-.188-2.765,14.863,14.863,0,0,0-1.549-2.426,12.01,12.01,0,0,1-2.025-6.279,4.575,4.575,0,0,1,5.237,3.615.273.273,0,0,0,.263.2,5.883,5.883,0,0,1,4.045,10.5c-.242.2.075.593.33.428a9.182,9.182,0,0,1,3.507-1.626,3.675,3.675,0,0,1,1.763.135c.426.151.579.222.616.677a5.286,5.286,0,0,1,.011.661,5.7,5.7,0,0,1-3.239,4.849m28.02,12.061a8.9,8.9,0,0,1-.444,11.607,10.171,10.171,0,0,0-6.808-5.324c-3.771-1.016-7.639-.222-11.248,1.046-3.752,1.319-7.354,3-11.16,4.178a59.413,59.413,0,0,1-11.99,2.453,41.023,41.023,0,0,1-21.816-3.517,33.53,33.53,0,0,1-15.013-14.124c-3.327-6.233-4.433-13.7-2.034-20.443A22.817,22.817,0,0,0,109.35,49.9c.815-1.95,1.568-3.943,2.468-5.855a11.9,11.9,0,0,1,2.973-4.116,16.085,16.085,0,0,1,6.552-3,19.126,19.126,0,0,1,9.428.506,17.1,17.1,0,0,1,6.929,3.7,17.436,17.436,0,0,1,5.5,12.736c.116,5.605-2.625,11.03-7.846,13.442-4.813,2.223-11.065.881-13.691-3.977A8.972,8.972,0,0,1,121,56.367a6.233,6.233,0,0,1,2.43-3.316,5.508,5.508,0,0,0,4.2,8.926c1.568,2.066,4.79,2.012,6.851.71,5-3.159,4.026-12.538-1.964-13.943a5.449,5.449,0,0,0-3.931.568,4.81,4.81,0,0,0-.937.707c-.392.381-.691,1.009-1.333.539a3.235,3.235,0,0,1-.809-2.318c-.119-3.738,3.326-5.986,6.631-6.545a.274.274,0,0,0,.12-.456,4.679,4.679,0,0,0-5.412-.489c-2.024,1.148-2.676,3.184-3.349,5.263a9.873,9.873,0,0,1-1.983,3.424,14.036,14.036,0,0,0-2.076,2.833,3.963,3.963,0,0,0,.216,4.18,6.824,6.824,0,0,1-5.238-4.893A7.338,7.338,0,0,1,114.895,47l0,0a7.389,7.389,0,0,1,2.382-3.013c.282-.2.009-.677-.275-.471a8.045,8.045,0,0,0-2.589,3.241,8.044,8.044,0,0,0-1.4,8.419,8.128,8.128,0,0,0,6.509,4.99,5.413,5.413,0,0,1-9.1,3.786.275.275,0,0,0-.456.12c-.452,2.53,2.117,4.044,4.243,4.454a18.111,18.111,0,0,1,4.479.945c1.229.586,2.384,1.777,2.084,3.235a5.445,5.445,0,0,1-5.951,2.044,7.921,7.921,0,0,1-4.72-3.926,15.243,15.243,0,0,1-1.565-6.314,37.822,37.822,0,0,1,.145-6.743,17.607,17.607,0,0,1,1.727-6.405c.164-.31-.307-.585-.471-.275a19.94,19.94,0,0,0-1.915,7.994c-.309,4.472-.363,9.939,2.681,13.572a7.507,7.507,0,0,0,5.523,2.834A5.768,5.768,0,0,0,121.2,73.05a4.368,4.368,0,0,1,4.959,5.406,4.769,4.769,0,0,1-7.567,2.332c-.23-.179-.6.044-.428.33a6.519,6.519,0,0,0,12.006-4.764,5.772,5.772,0,0,1,5.7,5.425.274.274,0,0,0,.535.072,24.673,24.673,0,0,0,1.344-9.7A8.411,8.411,0,0,1,144.3,74.64a8.226,8.226,0,0,1,.741,10.313c-.556.792-1.273,1.579-1.149,2.619a1.434,1.434,0,0,0,1.367,1.353c.9,0,1.617-.828,2.078-1.5,1.242-1.821,2.478-4.015,2.457-6.282a12.236,12.236,0,0,0-.732-3.466,14.7,14.7,0,0,1-.733-3.911,5.793,5.793,0,0,1,.091-1.987c.195-.509,1.219-.278,1.639-.2a6.319,6.319,0,0,1,2.808,1.353,7.413,7.413,0,0,1,2.588,6.159,10.173,10.173,0,0,1-.249,1.821.243.243,0,0,0-.038.158c-1.028,4.176-4.568,7.3-8,9.713-.285.2-.012.673.275.471a28.29,28.29,0,0,0,5.269-4.537,13.972,13.972,0,0,0,2.992-5.565c1.312-2.012,2.683-4.912,1.835-7.346a6.811,6.811,0,0,0-5.225-4.267,4.767,4.767,0,0,1,2.659-3.393,5.1,5.1,0,0,1,4.621.2,5.969,5.969,0,0,1,2.937,3.605,10.921,10.921,0,0,1-.142,4.9c-.055.292.339.492.5.21,1.5-2.665,3.971-5.345,7.208-5.515a13.762,13.762,0,0,1-2.063,8.557,15.642,15.642,0,0,1-3.08,3.418,4.238,4.238,0,0,0-1.836,3.02.276.276,0,0,0,.345.263c3.878-.779,5.065-4.977,6.442-8.112a8.761,8.761,0,0,1,3.475-4.4c1.757-.963,3.864-.822,5.8-.646-.521,2.5-1.2,4.862-3.237,6.575-1.638,1.379-3.694,2.426-4.6,4.478-.074.169.007.43.235.41,2.438-.216,4.233-1.9,5.7-3.72,1.28-1.585,2.569-3.752,4.717-4.21,2.258-.481,4.536,1.092,5.889,2.763m-24.194,6.25c.231-1.379,1.679-2.252,2.631-3.152A13.8,13.8,0,0,0,168.9,77.7c-1.111,2.74-2.263,5.683-5.208,6.489" transform="translate(0)" fill="#fbfbfc" stroke="#fbfbfb" stroke-width="0.5"/>
    </g>
  </g>
</svg>
