<?xml version="1.0" encoding="UTF-8" standalone="no"?>
<svg
   width="2016.0742"
   height="209.64481"
   viewBox="0 0 2016.0742 209.6448"
   version="1.1"
   id="svg3"
   sodipodi:docname="plano.svg"
   inkscape:version="1.2 (dc2aedaf03, 2022-05-15)"
   xmlns:inkscape="http://www.inkscape.org/namespaces/inkscape"
   xmlns:sodipodi="http://sodipodi.sourceforge.net/DTD/sodipodi-0.dtd"
   xmlns="http://www.w3.org/2000/svg"
   xmlns:svg="http://www.w3.org/2000/svg">
  <defs
     id="defs7" />
  <sodipodi:namedview
     id="namedview5"
     pagecolor="#ffffff"
     bordercolor="#000000"
     borderopacity="0.25"
     inkscape:showpageshadow="2"
     inkscape:pageopacity="0.0"
     inkscape:pagecheckerboard="0"
     inkscape:deskcolor="#d1d1d1"
     showgrid="false"
     inkscape:zoom="0.4246055"
     inkscape:cx="454.53957"
     inkscape:cy="155.4384"
     inkscape:window-width="1920"
     inkscape:window-height="1009"
     inkscape:window-x="-8"
     inkscape:window-y="-8"
     inkscape:window-maximized="1"
     inkscape:current-layer="svg3" />
  <path
     id="Trazado_36794"
     data-name="Trazado 36794"
     d="m -0.01401119,209.61063 c 0,0 -0.14159205,-160.080149 0.03640795,-162.871149 45.83499924,-20.156 75.87898824,4.924195 143.25999324,0.147195 67.381,-4.777 130.524,-39.2850003 176.074,-30.822 45.55,8.463 95.19,37.141 184.722,30.822 89.532,-6.319 109.57733,-53.9553422 213.71633,-35.451342 104.139,18.504 96.14062,32.428715 167.48367,23.189342 85.20686,-11.034823 289.32601,-40.9870617 386.75801,-3.573062 97.432,37.414 226.636,-16.212938 305.038,-7.225938 78.402,8.987 138.391,39.529 242.427,10.8 104.036,-28.7290003 195.883,-46.768 196.411,-4.927 0.528,41.841 0.2195,180.335164 0.2195,180.335164 0,0 -2016.48249188,-0.0721 -2016.14591119,-0.42321 z"
     fill="#201f25"
     sodipodi:nodetypes="ccssssssssscc" />
</svg>
